<?xml version="1.0" encoding="utf-8"?>
<!-- Generator: Adobe Illustrator 24.1.2, SVG Export Plug-In . SVG Version: 6.00 Build 0)  -->
<svg version="1.1" id="Layer_1" xmlns="http://www.w3.org/2000/svg" xmlns:xlink="http://www.w3.org/1999/xlink" x="0px" y="0px"
	 viewBox="0 0 270 120" style="enable-background:new 0 0 270 120;" xml:space="preserve">
<style type="text/css">
	.st0{fill:#FFCC07;}
	.st1{fill:#EB0C8B;}
	.st2{fill:#FFFFFF;}
</style>
<g>
	
		<rect x="134.3" y="-179.3" transform="matrix(0.9874 -0.1581 0.1581 0.9874 28.274 29.7184)" class="st0" width="133.3" height="32.9"/>
	<g>
		<path class="st1" d="M163.6-147.7c0.3-0.1,0.6,0,0.9,0.2s0.5,0.5,0.5,0.8c0.1,0.3,0,0.6-0.2,0.9c-0.2,0.3-0.5,0.4-0.8,0.5
			l-11.5,1.9c-0.3,0.1-0.6,0-0.9-0.2c-0.3-0.2-0.4-0.5-0.5-0.8l-3.1-18.8c-0.1-0.3,0-0.6,0.2-0.9c0.2-0.3,0.5-0.4,0.8-0.5l11.5-1.9
			c0.3-0.1,0.6,0,0.9,0.2s0.5,0.5,0.5,0.8c0.1,0.3,0,0.7-0.2,0.9c-0.2,0.3-0.5,0.4-0.8,0.5l-10.3,1.7l2.7,16.4L163.6-147.7z
			 M154.3-153.4c-0.3,0.1-0.7,0-0.9-0.2c-0.3-0.2-0.4-0.5-0.5-0.8c-0.1-0.3,0-0.6,0.2-0.9c0.2-0.3,0.5-0.4,0.8-0.5l6.5-1.1
			c0.3-0.1,0.6,0,0.9,0.2c0.3,0.2,0.4,0.5,0.5,0.8c0.1,0.3,0,0.6-0.2,0.9c-0.2,0.3-0.5,0.4-0.8,0.5L154.3-153.4z"/>
		<path class="st1" d="M165.3-167.2c0.3-0.1,0.5-0.2,0.8-0.1c0.3,0.1,0.5,0.2,0.7,0.4l12.4,13.7l-2.4-14.7c-0.1-0.3,0-0.7,0.2-0.9
			s0.5-0.4,0.8-0.5c0.3-0.1,0.6,0,0.9,0.2c0.3,0.2,0.4,0.5,0.5,0.8l3.1,18.8c0,0.3,0,0.5-0.1,0.8c-0.1,0.2-0.3,0.4-0.6,0.5
			c-0.1,0.1-0.3,0.1-0.3,0.1c-0.5,0.1-0.8-0.1-1.1-0.4l-12.4-13.7l2.4,14.7c0.1,0.3,0,0.6-0.2,0.9c-0.2,0.3-0.5,0.4-0.8,0.5
			c-0.3,0.1-0.6,0-0.9-0.2c-0.3-0.2-0.4-0.5-0.5-0.8l-3.1-18.8c0-0.3,0-0.5,0.1-0.8C164.9-166.9,165.1-167.1,165.3-167.2z"/>
		<path class="st1" d="M201.1-151.3c-1,0.2-2,0.1-2.9-0.1c-0.9-0.2-1.8-0.6-2.6-1.2c-0.8-0.5-1.4-1.2-1.9-2.1
			c-0.5-0.8-0.9-1.7-1-2.7l-1.1-6.7c-0.2-1-0.1-2,0.1-2.9c0.2-0.9,0.6-1.8,1.2-2.6c0.5-0.8,1.2-1.4,2.1-1.9c0.8-0.5,1.7-0.9,2.7-1
			c1-0.2,2-0.1,2.9,0.1c0.9,0.2,1.8,0.6,2.6,1.2c0.8,0.5,1.4,1.2,1.9,2.1c0.5,0.8,0.9,1.7,1,2.7c0.1,0.3,0,0.6-0.2,0.9
			c-0.2,0.3-0.5,0.5-0.8,0.5c-0.3,0.1-0.7,0-0.9-0.2c-0.3-0.2-0.4-0.5-0.5-0.8c-0.1-0.7-0.3-1.3-0.7-1.8c-0.4-0.5-0.8-1-1.3-1.4
			c-0.5-0.4-1.1-0.6-1.7-0.8c-0.6-0.2-1.3-0.2-1.9-0.1c-0.7,0.1-1.3,0.3-1.8,0.7c-0.5,0.4-1,0.8-1.4,1.3c-0.4,0.5-0.6,1.1-0.8,1.7
			c-0.2,0.6-0.2,1.3-0.1,1.9l1.1,6.7c0.1,0.7,0.3,1.3,0.7,1.8c0.4,0.5,0.8,1,1.3,1.4c0.5,0.4,1.1,0.6,1.7,0.8
			c0.6,0.2,1.3,0.2,1.9,0.1c0.7-0.1,1.3-0.3,1.8-0.7c0.5-0.4,1-0.8,1.4-1.3c0.4-0.5,0.6-1.1,0.8-1.7c0.2-0.6,0.2-1.3,0.1-1.9
			c-0.1-0.3,0-0.7,0.2-0.9s0.5-0.4,0.8-0.5c0.3-0.1,0.6,0,0.9,0.2c0.3,0.2,0.4,0.5,0.5,0.8c0.2,1,0.1,2-0.1,2.9
			c-0.2,0.9-0.6,1.8-1.2,2.6c-0.5,0.8-1.2,1.4-2.1,1.9C203-151.9,202.1-151.5,201.1-151.3z"/>
		<path class="st1" d="M211.4-153.1c-0.3,0-0.6-0.2-0.8-0.5c-0.2-0.3-0.3-0.6-0.2-0.9l3-19.8c0-0.3,0.1-0.5,0.3-0.7
			c0.2-0.2,0.4-0.3,0.7-0.3c0.3,0,0.5,0,0.7,0.1c0.2,0.1,0.4,0.3,0.6,0.5l6.7,13.1l2.4,4.7c0.2,0.3,0.2,0.6,0.1,0.9
			c-0.1,0.3-0.3,0.6-0.6,0.7c-0.1,0-0.1,0.1-0.2,0.1s-0.1,0-0.2,0c-0.3,0-0.5,0-0.7-0.1c-0.2-0.1-0.4-0.3-0.6-0.5l-2-4l-4.2,0.7
			c-0.3,0.1-0.7,0-0.9-0.2c-0.3-0.2-0.4-0.5-0.5-0.8c-0.1-0.3,0-0.6,0.2-0.9s0.5-0.4,0.8-0.5l3.4-0.6l-4.2-8.2l-2.4,16
			c0,0.3-0.2,0.6-0.5,0.8C212.1-153.1,211.8-153.1,211.4-153.1z"/>
		<path class="st1" d="M237.4-160c0.4-0.3,0.7-0.6,1-0.9c0.3-0.4,0.4-0.8,0.6-1.2c0.1-0.5,0.1-0.9,0.1-1.4c-0.1-0.5-0.2-0.9-0.5-1.3
			c-0.2-0.4-0.6-0.7-0.9-1s-0.8-0.5-1.2-0.6c-0.5-0.1-0.9-0.1-1.4,0l-1.4,0.2l-1.3,0.2c-0.8,0.1-1.6,0.1-2.4-0.1
			c-0.8-0.2-1.5-0.5-2.1-1c-0.6-0.4-1.1-1-1.6-1.7c-0.4-0.7-0.7-1.4-0.8-2.2c-0.1-0.8-0.1-1.6,0.1-2.4c0.2-0.8,0.5-1.5,1-2.1
			c0.4-0.6,1-1.1,1.7-1.6c0.7-0.4,1.4-0.7,2.2-0.8l1.3-0.2l1.4-0.2c0.8-0.1,1.6-0.1,2.4,0.1c0.8,0.2,1.5,0.5,2.1,1
			c0.6,0.4,1.1,1,1.6,1.7c0.4,0.7,0.7,1.4,0.8,2.2c0.1,0.3,0,0.7-0.2,0.9c-0.2,0.3-0.5,0.4-0.8,0.5c-0.3,0.1-0.7,0-0.9-0.2
			s-0.4-0.5-0.5-0.8c-0.1-0.5-0.2-0.9-0.5-1.3c-0.2-0.4-0.6-0.7-0.9-1c-0.4-0.3-0.8-0.5-1.2-0.6c-0.5-0.1-0.9-0.1-1.4-0.1l-1.4,0.2
			l-1.3,0.2c-0.5,0.1-0.9,0.2-1.3,0.5c-0.4,0.2-0.7,0.6-1,0.9c-0.3,0.4-0.5,0.8-0.6,1.2c-0.1,0.5-0.1,0.9-0.1,1.4
			c0.1,0.5,0.2,0.9,0.5,1.3c0.2,0.4,0.6,0.7,0.9,1c0.4,0.3,0.8,0.5,1.2,0.6c0.4,0.1,0.9,0.1,1.4,0l1.3-0.2l1.4-0.2
			c0.8-0.1,1.6-0.1,2.4,0.1c0.8,0.2,1.5,0.5,2.1,1c0.6,0.4,1.1,1,1.6,1.7c0.4,0.7,0.7,1.4,0.8,2.2c0.1,0.8,0.1,1.6-0.1,2.4
			c-0.2,0.8-0.5,1.5-1,2.1c-0.4,0.6-1,1.2-1.7,1.6c-0.7,0.4-1.4,0.7-2.2,0.8l-1.4,0.2l-1.3,0.2c-0.8,0.1-1.6,0.1-2.4-0.1
			c-0.8-0.2-1.5-0.5-2.1-1c-0.6-0.5-1.1-1-1.6-1.7c-0.4-0.7-0.7-1.4-0.8-2.2c-0.1-0.3,0-0.7,0.2-0.9c0.2-0.3,0.5-0.4,0.8-0.5
			c0.3-0.1,0.7,0,0.9,0.2c0.3,0.2,0.4,0.5,0.5,0.8c0.1,0.5,0.2,0.9,0.5,1.3c0.2,0.4,0.6,0.7,0.9,1c0.4,0.3,0.8,0.5,1.2,0.6
			c0.4,0.1,0.9,0.1,1.4,0.1l1.3-0.2l1.4-0.2C236.6-159.6,237-159.7,237.4-160z"/>
		<path class="st1" d="M245.1-158.6c-0.3,0-0.6-0.2-0.8-0.5c-0.2-0.3-0.3-0.6-0.2-0.9l3-19.8c0-0.3,0.1-0.5,0.3-0.7
			c0.2-0.2,0.4-0.3,0.7-0.3c0.3,0,0.5,0,0.7,0.1c0.2,0.1,0.4,0.3,0.6,0.5l6.7,13.1l2.4,4.7c0.2,0.3,0.2,0.6,0.1,0.9
			c-0.1,0.3-0.3,0.6-0.6,0.7c-0.1,0-0.1,0.1-0.2,0.1c-0.1,0-0.1,0-0.2,0c-0.3,0-0.5,0-0.7-0.1c-0.2-0.1-0.4-0.3-0.6-0.5l-2-4
			l-4.2,0.7c-0.3,0.1-0.7,0-0.9-0.2c-0.3-0.2-0.4-0.5-0.5-0.8c-0.1-0.3,0-0.6,0.2-0.9c0.2-0.3,0.5-0.4,0.8-0.5l3.4-0.6l-4.2-8.2
			l-2.4,16c0,0.3-0.2,0.6-0.5,0.8C245.8-158.6,245.5-158.5,245.1-158.6z"/>
	</g>
	<g>
		<path class="st2" d="M5-215.9h8l5.1,17.7v12.5H13v-9H5.2v9H0.1v-13.2L5-215.9z M12.5-199.7l-3-11.2l-0.9,0l-3,11.2H12.5z"/>
		<path class="st2" d="M24.2-177.8v-29.4h4.5l0.2,2c0.1-0.2,0.3-0.4,0.5-0.6c0.2-0.3,0.7-0.6,1.5-1c0.8-0.4,1.7-0.6,2.7-0.6
			c1.9,0,3.5,0.7,4.9,2.1c1.4,1.4,2.1,3.1,2.1,5.3v7.6c0,2-0.7,3.8-2.1,5.2c-1.4,1.4-3.1,2.1-4.9,2.1c-1,0-1.8-0.1-2.5-0.4
			c-0.7-0.3-1.2-0.5-1.4-0.8l-0.4-0.4v9H24.2z M35.5-192.7v-7.4c0-1-0.3-1.7-0.9-2.3c-0.6-0.6-1.3-0.9-2.2-0.9
			c-0.9,0-1.7,0.3-2.3,0.9c-0.6,0.6-0.9,1.3-0.9,2.3v7.4c0,1,0.3,1.7,0.9,2.3c0.6,0.6,1.4,0.9,2.2,0.9c0.9,0,1.6-0.3,2.2-0.9
			C35.2-191,35.5-191.7,35.5-192.7z"/>
		<path class="st2" d="M58.4-206.9l-1.5,4.2c-0.6-0.3-1.3-0.5-2.3-0.5c-1,0-1.8,0.4-2.5,1.3c-0.6,0.9-1,2.1-1,3.7v12.5h-5v-21.6h4.7
			l0.1,2.4c0-0.1,0.1-0.2,0.2-0.3c0.1-0.1,0.3-0.3,0.5-0.6c0.3-0.3,0.5-0.6,0.8-0.8c0.3-0.2,0.7-0.5,1.2-0.7c0.5-0.2,1-0.3,1.5-0.3
			c0.6,0,1.1,0.1,1.7,0.2c0.5,0.1,0.9,0.2,1.1,0.3L58.4-206.9z"/>
		<path class="st2" d="M71-192h5c-0.2,2-1.1,3.7-2.6,4.9c-1.5,1.2-3.4,1.9-5.5,1.9c-2.4,0-4.3-0.7-5.8-2.1c-1.5-1.4-2.2-3.2-2.2-5.3
			v-7.7c0-2.1,0.8-3.8,2.3-5.3c1.5-1.4,3.4-2.1,5.8-2.1c2.4,0,4.3,0.7,5.8,2.1c1.5,1.4,2.2,3.1,2.2,5.2v5.6H64.8v2.1
			c0,0.9,0.3,1.7,0.9,2.2c0.6,0.6,1.3,0.9,2.2,0.9c0.8,0,1.5-0.2,2-0.6c0.5-0.4,0.8-0.8,1-1.2L71-192z M64.8-200.3v1.4h6.3v-1.4
			c0-0.9-0.3-1.6-0.9-2.2c-0.6-0.5-1.3-0.8-2.2-0.8c-0.8,0-1.6,0.3-2.2,0.8C65.1-201.8,64.8-201.1,64.8-200.3z"/>
		<path class="st2" d="M93-185.6v-14.1c0-1-0.3-1.9-0.8-2.5c-0.6-0.6-1.3-0.9-2.3-0.9c-0.9,0-1.7,0.3-2.3,0.9c-0.6,0.6-1,1.4-1,2.5
			v14h-5v-21.6h4.7l0.3,2.1c0.1-0.2,0.3-0.4,0.5-0.7c0.2-0.3,0.7-0.6,1.5-1.1c0.8-0.4,1.7-0.7,2.7-0.7c2,0,3.6,0.7,4.8,2.1
			c1.2,1.4,1.8,3.3,1.8,5.7v14.2H93z"/>
		<path class="st2" d="M119.7-215.9v30.3h-4.4l-0.2-1.9c-0.1,0.2-0.3,0.4-0.5,0.6c-0.2,0.2-0.8,0.6-1.6,1c-0.8,0.4-1.8,0.6-2.7,0.6
			c-1.9,0-3.5-0.7-4.8-2.1c-1.4-1.4-2-3.1-2-5.3v-7.6c0-2,0.7-3.8,2.1-5.2c1.4-1.4,3.1-2.1,4.9-2.1c1,0,1.8,0.2,2.5,0.5
			c0.7,0.3,1.2,0.7,1.4,1l0.3,0.5v-10.2H119.7z M108.4-200.2v7.5c0,1,0.3,1.7,0.9,2.3c0.6,0.6,1.3,0.9,2.2,0.9
			c0.9,0,1.7-0.3,2.3-0.9c0.6-0.6,0.9-1.3,0.9-2.3v-7.3c0-1.1-0.3-1.9-0.9-2.5c-0.6-0.6-1.3-0.9-2.3-0.9c-0.9,0-1.6,0.3-2.2,0.9
			C108.7-201.9,108.4-201.1,108.4-200.2z"/>
		<path class="st2" d="M125.8-210.3v-5.5h5.5v5.5H125.8z M125.9-185.6v-21.6h5.1v21.6H125.9z"/>
		<path class="st2" d="M151.3-202.9l-9,12.7h9.1v4.5h-14.9v-4.3l8.9-12.8H137v-4.5h14.3V-202.9z"/>
		<path class="st2" d="M167-185.6l-0.2-2.3c-0.1,0.2-0.3,0.4-0.6,0.7c-0.3,0.3-0.9,0.7-1.8,1.2c-1,0.5-2,0.7-3.2,0.7
			c-2,0-3.5-0.6-4.7-1.8c-1.2-1.2-1.7-2.8-1.7-4.6c0-2,0.7-3.6,2.2-4.8c1.4-1.2,3.3-1.8,5.7-2l3.8-0.3v-1.5c0-0.9-0.2-1.6-0.7-2.1
			c-0.5-0.5-1.1-0.8-1.9-0.8c-0.8,0-1.4,0.2-2,0.7c-0.5,0.4-0.8,1-0.9,1.8H156c0-1.9,0.7-3.6,2.2-4.9c1.4-1.3,3.2-2,5.4-2
			c2.4,0,4.4,0.7,5.8,2.1c1.4,1.4,2.1,3.2,2.1,5.3v14.7H167z M162.6-189.5c1.1,0,2-0.3,2.7-1c0.7-0.7,1.1-1.4,1.1-2.1v-2.5l-3.5,0.3
			c-1,0.1-1.7,0.4-2.3,0.9c-0.5,0.5-0.8,1.1-0.8,2c0,0.6,0.2,1.2,0.7,1.7C161-189.7,161.7-189.5,162.6-189.5z"/>
		<path class="st2" d="M182.6-207.2v23.3c0,1.8-0.6,3.4-1.8,4.6c-1.2,1.3-2.7,1.9-4.5,1.9c-0.9,0-1.7-0.2-2.5-0.5
			c-0.8-0.3-1.5-0.7-1.9-1l-0.6-0.5l2.8-3.8c0.6,0.7,1.3,1,2,1c0.4,0,0.8-0.1,1.1-0.4c0.3-0.3,0.5-0.7,0.5-1.2v-23.5H182.6z
			 M177.2-210.3v-5.5h5.5v5.5H177.2z"/>
		<path class="st2" d="M199.5-192h5c-0.2,2-1.1,3.7-2.6,4.9c-1.5,1.2-3.4,1.9-5.5,1.9c-2.4,0-4.3-0.7-5.8-2.1
			c-1.5-1.4-2.2-3.2-2.2-5.3v-7.7c0-2.1,0.8-3.8,2.3-5.3c1.5-1.4,3.4-2.1,5.8-2.1c2.4,0,4.3,0.7,5.8,2.1c1.5,1.4,2.2,3.1,2.2,5.2
			v5.6h-11.1v2.1c0,0.9,0.3,1.7,0.9,2.2c0.6,0.6,1.3,0.9,2.2,0.9c0.8,0,1.5-0.2,2-0.6c0.5-0.4,0.8-0.8,1-1.2L199.5-192z
			 M193.3-200.3v1.4h6.3v-1.4c0-0.9-0.3-1.6-0.9-2.2c-0.6-0.5-1.3-0.8-2.2-0.8c-0.8,0-1.6,0.3-2.2,0.8
			C193.6-201.8,193.3-201.1,193.3-200.3z"/>
		<path class="st2" d="M18.1-160.3v1.3c0,2.4-0.9,4.4-2.6,6.1c-1.8,1.7-3.9,2.5-6.4,2.5s-4.6-0.8-6.4-2.5c-1.8-1.7-2.6-3.7-2.6-6
			v-14.1c0-2.3,0.9-4.3,2.7-6c1.8-1.7,3.9-2.5,6.3-2.5c1.6,0,2.9,0.3,4.1,0.8s2.1,1.3,2.8,2.2c0.6,0.9,1.1,1.8,1.4,2.8
			c0.3,1,0.5,2,0.5,3h-5.3c0-1-0.3-1.9-1-2.7c-0.6-0.8-1.5-1.2-2.6-1.2c-1,0-1.9,0.3-2.6,1c-0.7,0.7-1,1.5-1,2.4v14.4
			c0,1.1,0.4,1.9,1.1,2.5c0.7,0.6,1.6,0.9,2.6,0.9c1,0,1.9-0.3,2.7-1c0.8-0.6,1.2-1.5,1.2-2.7v-1.3H18.1z"/>
		<path class="st2" d="M35.5-172.2l-1.5,4.2c-0.6-0.3-1.3-0.5-2.3-0.5c-1,0-1.8,0.4-2.5,1.3c-0.6,0.9-1,2.1-1,3.7v12.5h-5v-21.6H28
			l0.1,2.4c0-0.1,0.1-0.2,0.2-0.3c0.1-0.1,0.3-0.3,0.5-0.6c0.3-0.3,0.5-0.6,0.8-0.8c0.3-0.2,0.7-0.5,1.2-0.7c0.5-0.2,1-0.3,1.5-0.3
			c0.6,0,1.1,0.1,1.7,0.2c0.5,0.1,0.9,0.2,1.1,0.3L35.5-172.2z"/>
		<path class="st2" d="M48.2-157.3h5c-0.2,2-1.1,3.7-2.6,4.9c-1.5,1.2-3.4,1.9-5.5,1.9c-2.4,0-4.3-0.7-5.8-2.1
			c-1.5-1.4-2.2-3.2-2.2-5.3v-7.7c0-2.1,0.8-3.8,2.3-5.3c1.5-1.4,3.4-2.1,5.8-2.1c2.4,0,4.3,0.7,5.8,2.1c1.5,1.4,2.2,3.1,2.2,5.2
			v5.6H42v2.1c0,0.9,0.3,1.7,0.9,2.2c0.6,0.6,1.3,0.9,2.2,0.9c0.8,0,1.5-0.2,2-0.6c0.5-0.4,0.8-0.8,1-1.2L48.2-157.3z M42-165.6v1.4
			h6.3v-1.4c0-0.9-0.3-1.6-0.9-2.2c-0.6-0.5-1.3-0.8-2.2-0.8c-0.8,0-1.6,0.3-2.2,0.8C42.3-167.1,42-166.4,42-165.6z"/>
		<path class="st2" d="M69.8-150.9l-0.2-2.3c-0.1,0.2-0.3,0.4-0.6,0.7c-0.3,0.3-0.9,0.7-1.8,1.2c-1,0.5-2,0.7-3.2,0.7
			c-2,0-3.5-0.6-4.7-1.8c-1.2-1.2-1.7-2.8-1.7-4.6c0-2,0.7-3.6,2.2-4.8c1.4-1.2,3.3-1.8,5.7-2l3.8-0.3v-1.5c0-0.9-0.2-1.6-0.7-2.1
			c-0.5-0.5-1.1-0.8-1.9-0.8c-0.8,0-1.4,0.2-2,0.7c-0.5,0.4-0.8,1-0.9,1.8h-4.9c0-1.9,0.7-3.6,2.2-4.9c1.4-1.3,3.2-2,5.4-2
			c2.4,0,4.4,0.7,5.8,2.1c1.4,1.4,2.1,3.2,2.1,5.3v14.7H69.8z M65.3-154.8c1.1,0,2-0.3,2.7-1c0.7-0.7,1.1-1.4,1.1-2.1v-2.5l-3.5,0.3
			c-1,0.1-1.7,0.4-2.3,0.9c-0.5,0.5-0.8,1.1-0.8,2c0,0.6,0.2,1.2,0.7,1.7C63.7-155,64.4-154.8,65.3-154.8z"/>
		<path class="st2" d="M77.8-168v-4.5h2.9v-5.6h5.1v5.6h6.7v4.5h-6.7v11c0,0.6,0.2,1.1,0.6,1.4c0.4,0.3,0.8,0.5,1.4,0.5
			c0.5,0,1-0.2,1.3-0.5c0.3-0.3,0.5-0.8,0.5-1.4v-0.6h4.6v0.3c0,2-0.6,3.6-1.9,4.8c-1.3,1.2-2.8,1.9-4.7,1.9c-2.1,0-3.7-0.6-4.9-1.9
			c-1.2-1.3-1.8-3.1-1.8-5.4V-168H77.8z"/>
		<path class="st2" d="M98-175.6v-5.5h5.5v5.5H98z M98.2-150.9v-21.6h5.1v21.6H98.2z"/>
		<path class="st2" d="M113.7-172.5v8.3l2.8,8.9l0.4,0l2.8-8.9v-8.3h5.1v7.8l-4.6,13.8h-7.1l-4.4-13.1v-8.5H113.7z"/>
		<path class="st2" d="M145.7-165.6v7.7c0,2.1-0.7,3.9-2.2,5.3c-1.5,1.4-3.4,2.1-5.8,2.1c-2.4,0-4.4-0.7-5.9-2.1
			c-1.5-1.4-2.2-3.2-2.2-5.3v-7.7c0-2.1,0.7-3.9,2.2-5.3c1.5-1.4,3.5-2.1,5.9-2.1c2.4,0,4.3,0.7,5.8,2.1
			C145-169.4,145.7-167.7,145.7-165.6z M140.7-158.1v-7.2c0-1-0.3-1.7-0.9-2.3c-0.6-0.6-1.4-0.9-2.2-0.9c-0.9,0-1.6,0.3-2.2,0.9
			c-0.6,0.6-0.9,1.3-0.9,2.3v7.2c0,1,0.3,1.7,0.9,2.3c0.6,0.6,1.4,0.9,2.3,0.9c0.9,0,1.6-0.3,2.2-0.9
			C140.4-156.4,140.7-157.2,140.7-158.1z"/>
	</g>
	<g>
		<path class="st2" d="M0.9-124.5v-1c0-0.2,0.1-0.3,0.3-0.3h1c0.2,0,0.3,0.1,0.3,0.3v1c0,2,1.4,3.3,3.5,3.3c2.1,0,3.5-1.3,3.5-3.3
			v-10.9c0-0.2,0.1-0.3,0.3-0.3h1c0.2,0,0.3,0.1,0.3,0.3v10.9c0,2.8-2.1,4.7-5.1,4.7S0.9-121.6,0.9-124.5z"/>
		<path class="st2" d="M22.1-131.3h1c0.2,0,0.3,0.1,0.3,0.3v10.7c0,0.2-0.1,0.3-0.3,0.3h-1c-0.2,0-0.3-0.1-0.3-0.3v-0.9
			c0-0.1-0.1-0.1-0.1,0c-0.6,0.9-1.6,1.3-3,1.3c-2.1,0-3.9-1.3-3.9-3.7v-7.5c0-0.2,0.1-0.3,0.3-0.3h1c0.2,0,0.3,0.1,0.3,0.3v7
			c0,1.7,1,2.8,2.7,2.8c1.7,0,2.8-1.1,2.8-2.8v-7C21.8-131.2,22-131.3,22.1-131.3z"/>
		<path class="st2" d="M34.3-131.3h1c0.2,0,0.3,0.1,0.3,0.3v10.7c0,3.8-2.6,5-6.1,4.8c-0.2,0-0.3-0.1-0.3-0.3l0-0.9
			c0-0.2,0.1-0.3,0.3-0.3c3.2,0.1,4.5-0.9,4.5-3.4v-0.8c0-0.1-0.1-0.1-0.1,0c-0.6,0.8-1.5,1.3-2.9,1.3c-1.9,0-3.6-1-4.1-3
			c-0.2-0.7-0.3-1.6-0.3-2.7c0-1.2,0-2.1,0.3-2.9c0.5-1.7,2-3,4-3c1.4,0,2.4,0.5,3,1.3c0.1,0.1,0.1,0,0.1,0v-0.8
			C34-131.2,34.1-131.3,34.3-131.3z M34-125.6c0-1.5,0-1.8-0.1-2.3c-0.2-1.2-1.2-2.2-2.7-2.2c-1.5,0-2.4,1-2.8,2.2
			c-0.1,0.4-0.2,1-0.2,2.2c0,1.2,0.1,1.9,0.2,2.3c0.3,1.2,1.3,2.2,2.8,2.2c1.5,0,2.5-1,2.7-2.1C34-123.8,34-124.1,34-125.6z"/>
		<path class="st2" d="M47.1-127.7v7.5c0,0.2-0.1,0.3-0.3,0.3h-1c-0.2,0-0.3-0.1-0.3-0.3v-0.8c0-0.1-0.1-0.1-0.1,0
			c-0.8,0.9-2.1,1.3-3.5,1.3c-1.9,0-3.7-0.9-3.7-3.3c0-2.2,1.7-3.6,4.6-3.6h2.6c0.1,0,0.1,0,0.1-0.1v-0.8c0-1.5-0.8-2.5-2.6-2.5
			c-1.4,0-2.3,0.6-2.6,1.5c0,0.2-0.2,0.2-0.3,0.2l-1.1-0.1c-0.2,0-0.3-0.1-0.3-0.2c0.3-1.6,1.9-2.8,4.3-2.8
			C45.6-131.5,47.1-129.9,47.1-127.7z M45.5-123.6v-1.7c0-0.1,0-0.1-0.1-0.1h-2.4c-1.9,0-3.3,0.8-3.3,2.3c0,1.4,1.1,2,2.5,2
			C43.9-121.1,45.5-122,45.5-123.6z"/>
		<path class="st2" d="M56.2-131.1c0.2,0.1,0.2,0.2,0.2,0.4l-0.2,1c0,0.2-0.2,0.2-0.4,0.2c-0.3-0.1-0.6-0.1-1.1-0.1
			c-1.5,0-2.7,1.3-2.7,2.9v6.5c0,0.2-0.1,0.3-0.3,0.3h-1c-0.2,0-0.3-0.1-0.3-0.3V-131c0-0.2,0.1-0.3,0.3-0.3h1
			c0.2,0,0.3,0.1,0.3,0.3v1.3c0,0.1,0.1,0.1,0.1,0c0.6-1,1.6-1.7,2.9-1.7C55.6-131.4,55.9-131.3,56.2-131.1z"/>
		<path class="st2" d="M63-122.9c-0.2-0.8-0.3-1.6-0.3-2.8c0-1.2,0.1-2,0.3-2.7c0.5-1.8,2.2-3.1,4.3-3.1c2.3,0,3.9,1.3,4.4,2.9
			c0.1,0.2,0.1,0.4,0.1,0.6c0,0.2-0.1,0.3-0.3,0.3l-1,0.1c-0.2,0-0.3,0-0.3-0.2c0-0.1,0-0.2,0-0.3c-0.2-1.1-1.3-2-2.9-2
			c-1.5,0-2.6,0.9-2.8,2.2c-0.1,0.5-0.2,1.3-0.2,2.3c0,1.1,0.1,1.8,0.2,2.3c0.3,1.3,1.3,2.2,2.8,2.2c1.5,0,2.6-0.9,2.9-2
			c0,0,0-0.1,0-0.1l0,0c0-0.2,0.2-0.3,0.3-0.2l1,0.2c0.2,0,0.3,0.1,0.3,0.3c0,0.1,0,0.2-0.1,0.4c-0.4,1.7-2.2,2.9-4.4,2.9
			S63.6-121,63-122.9z"/>
		<path class="st2" d="M74.6-122.9c-0.2-0.7-0.3-1.7-0.3-2.8c0-1.1,0.1-2,0.3-2.7c0.6-1.9,2.2-3.1,4.4-3.1c2.1,0,3.8,1.2,4.3,3.1
			c0.2,0.8,0.3,1.7,0.3,2.8c0,1.1-0.1,2-0.3,2.8c-0.6,1.9-2.2,3.1-4.3,3.1C76.8-119.8,75.2-121,74.6-122.9z M81.9-123.4
			c0.1-0.5,0.2-1.4,0.2-2.3c0-1,0-1.8-0.2-2.3c-0.3-1.3-1.4-2.2-2.9-2.2c-1.5,0-2.5,0.9-2.9,2.2c-0.1,0.5-0.2,1.3-0.2,2.3
			c0,1,0,1.8,0.2,2.3c0.3,1.3,1.4,2.2,2.9,2.2C80.4-121.2,81.5-122,81.9-123.4z"/>
		<path class="st2" d="M95.5-127.6v7.3c0,0.2-0.1,0.3-0.3,0.3h-1c-0.2,0-0.3-0.1-0.3-0.3v-7c0-1.7-1.1-2.8-2.7-2.8
			c-1.5,0-2.6,0.9-2.8,2.4v7.5c0,0.2-0.1,0.3-0.3,0.3h-1c-0.2,0-0.3-0.1-0.3-0.3V-131c0-0.2,0.1-0.3,0.3-0.3h1
			c0.2,0,0.3,0.1,0.3,0.3v0.8c0,0.1,0.1,0.2,0.1,0.1c0.6-0.9,1.7-1.3,3-1.3C93.9-131.4,95.5-129.9,95.5-127.6z"/>
		<path class="st2" d="M106.2-122.8c0.1-0.2,0.2-0.2,0.4-0.1l0.6,0.4c0.2,0.1,0.2,0.2,0.1,0.4c-0.7,1.5-2.1,2.4-4.2,2.4
			c-2.1,0-3.6-1.1-4.2-2.8c-0.3-0.8-0.4-1.8-0.4-3.1c0-1.1,0-1.9,0.2-2.6c0.5-1.9,2.1-3.2,4.3-3.2c2.7,0,4.1,1.5,4.5,3.9
			c0.1,0.6,0.1,1.2,0.1,2.2c0,0.2-0.1,0.3-0.3,0.3h-7.2c-0.1,0-0.1,0-0.1,0.1c0,0.7,0,1.3,0.1,1.6c0.3,1.3,1.4,2.2,3,2.2
			C104.7-121.2,105.7-121.8,106.2-122.8z M100.4-128c-0.1,0.4-0.2,0.9-0.2,1.5c0,0.1,0,0.1,0.1,0.1h5.8c0.1,0,0.1,0,0.1-0.1
			c0-0.6-0.1-1.1-0.1-1.4c-0.3-1.3-1.3-2.2-2.9-2.2C101.6-130.1,100.6-129.2,100.4-128z"/>
		<path class="st2" d="M110.8-122.9c-0.2-0.8-0.3-1.6-0.3-2.8c0-1.2,0.1-2,0.3-2.7c0.5-1.8,2.2-3.1,4.3-3.1c2.3,0,3.9,1.3,4.4,2.9
			c0.1,0.2,0.1,0.4,0.1,0.6c0,0.2-0.1,0.3-0.3,0.3l-1,0.1c-0.2,0-0.3,0-0.3-0.2c0-0.1,0-0.2,0-0.3c-0.2-1.1-1.3-2-2.9-2
			c-1.5,0-2.6,0.9-2.8,2.2c-0.1,0.5-0.2,1.3-0.2,2.3c0,1.1,0.1,1.8,0.2,2.3c0.3,1.3,1.3,2.2,2.8,2.2c1.5,0,2.6-0.9,2.9-2
			c0,0,0-0.1,0-0.1l0,0c0-0.2,0.2-0.3,0.3-0.2l1,0.2c0.2,0,0.3,0.1,0.3,0.3c0,0.1,0,0.2-0.1,0.4c-0.4,1.7-2.2,2.9-4.4,2.9
			S111.4-121,110.8-122.9z"/>
		<path class="st2" d="M127.3-130h-2.4c-0.1,0-0.1,0-0.1,0.1v6.5c0,1.5,0.6,1.9,2,1.9h0.5c0.2,0,0.3,0.1,0.3,0.3v0.8
			c0,0.2-0.1,0.3-0.3,0.3h-0.8c-1.9,0-3.3-0.5-3.3-2.8v-7c0-0.1,0-0.1-0.1-0.1h-1.3c-0.2,0-0.3-0.1-0.3-0.3v-0.7
			c0-0.2,0.1-0.3,0.3-0.3h1.3c0.1,0,0.1,0,0.1-0.1v-2.5c0-0.2,0.1-0.3,0.3-0.3h1c0.2,0,0.3,0.1,0.3,0.3v2.5c0,0.1,0,0.1,0.1,0.1h2.4
			c0.2,0,0.3,0.1,0.3,0.3v0.7C127.6-130.1,127.5-130,127.3-130z"/>
		<path class="st2" d="M138.9-127.7v7.5c0,0.2-0.1,0.3-0.3,0.3h-1c-0.2,0-0.3-0.1-0.3-0.3v-0.8c0-0.1-0.1-0.1-0.1,0
			c-0.8,0.9-2.1,1.3-3.5,1.3c-1.9,0-3.7-0.9-3.7-3.3c0-2.2,1.7-3.6,4.6-3.6h2.6c0.1,0,0.1,0,0.1-0.1v-0.8c0-1.5-0.8-2.5-2.6-2.5
			c-1.4,0-2.3,0.6-2.6,1.5c0,0.2-0.2,0.2-0.3,0.2l-1.1-0.1c-0.2,0-0.3-0.1-0.3-0.2c0.3-1.6,1.9-2.8,4.3-2.8
			C137.4-131.5,138.9-129.9,138.9-127.7z M137.3-123.6v-1.7c0-0.1,0-0.1-0.1-0.1h-2.4c-1.9,0-3.3,0.8-3.3,2.3c0,1.4,1.1,2,2.5,2
			C135.7-121.1,137.3-122,137.3-123.6z"/>
	</g>
</g>
<rect x="134" y="37.1" transform="matrix(0.9874 -0.1581 0.1581 0.9874 -5.934 32.3319)" class="st0" width="132.6" height="32.7"/>
<g>
	<path class="st1" d="M163.1,68.5c0.3-0.1,0.6,0,0.9,0.2c0.3,0.2,0.5,0.5,0.5,0.8c0.1,0.3,0,0.6-0.2,0.9s-0.5,0.4-0.8,0.5l-11.4,1.9
		c-0.3,0.1-0.6,0-0.9-0.2s-0.4-0.5-0.5-0.8l-3.1-18.7c-0.1-0.3,0-0.6,0.2-0.9c0.2-0.3,0.5-0.4,0.8-0.5l11.4-1.9
		c0.3-0.1,0.6,0,0.9,0.2s0.5,0.5,0.5,0.8c0.1,0.3,0,0.6-0.2,0.9c-0.2,0.3-0.5,0.4-0.8,0.5l-10.2,1.7l2.7,16.3L163.1,68.5z
		 M153.9,62.9c-0.3,0.1-0.6,0-0.9-0.2c-0.3-0.2-0.4-0.5-0.5-0.8c-0.1-0.3,0-0.6,0.2-0.9c0.2-0.3,0.5-0.4,0.8-0.5l6.5-1.1
		c0.3-0.1,0.6,0,0.9,0.2c0.3,0.2,0.4,0.5,0.5,0.8c0.1,0.3,0,0.6-0.2,0.9c-0.2,0.3-0.5,0.4-0.8,0.5L153.9,62.9z"/>
	<path class="st1" d="M164.8,49.1c0.2-0.1,0.5-0.1,0.8-0.1c0.3,0.1,0.5,0.2,0.7,0.4L178.6,63l-2.4-14.6c-0.1-0.3,0-0.6,0.2-0.9
		c0.2-0.3,0.5-0.4,0.8-0.5c0.3-0.1,0.6,0,0.9,0.2c0.3,0.2,0.4,0.5,0.5,0.8l3,18.7c0,0.3,0,0.5-0.1,0.8c-0.1,0.2-0.3,0.4-0.6,0.5
		c-0.1,0.1-0.3,0.1-0.3,0.1c-0.5,0.1-0.8-0.1-1.1-0.4l-12.3-13.6l2.4,14.6c0.1,0.3,0,0.6-0.2,0.9c-0.2,0.3-0.5,0.4-0.8,0.5
		c-0.3,0.1-0.6,0-0.9-0.2c-0.3-0.2-0.4-0.5-0.5-0.8l-3-18.7c0-0.3,0-0.5,0.1-0.8C164.4,49.4,164.6,49.2,164.8,49.1z"/>
	<path class="st1" d="M200.4,64.9c-1,0.2-2,0.1-2.9-0.1c-0.9-0.2-1.8-0.6-2.5-1.2c-0.8-0.5-1.4-1.2-1.9-2c-0.5-0.8-0.9-1.7-1-2.7
		l-1.1-6.7c-0.2-1-0.1-2,0.1-2.9c0.2-0.9,0.6-1.8,1.2-2.5c0.5-0.8,1.2-1.4,2-1.9c0.8-0.5,1.7-0.9,2.7-1c1-0.2,2-0.1,2.9,0.1
		c0.9,0.2,1.8,0.6,2.5,1.2c0.8,0.5,1.4,1.2,1.9,2c0.5,0.8,0.9,1.7,1,2.7c0.1,0.3,0,0.6-0.2,0.9c-0.2,0.3-0.5,0.5-0.8,0.5
		c-0.3,0.1-0.6,0-0.9-0.2c-0.3-0.2-0.4-0.5-0.5-0.8c-0.1-0.7-0.3-1.3-0.7-1.8c-0.3-0.5-0.8-1-1.3-1.4c-0.5-0.4-1.1-0.6-1.7-0.8
		c-0.6-0.2-1.3-0.2-1.9-0.1c-0.7,0.1-1.3,0.3-1.8,0.7c-0.5,0.3-1,0.8-1.4,1.3c-0.4,0.5-0.6,1.1-0.8,1.7c-0.2,0.6-0.2,1.3-0.1,1.9
		l1.1,6.7c0.1,0.7,0.3,1.3,0.7,1.8c0.3,0.5,0.8,1,1.3,1.4c0.5,0.4,1.1,0.6,1.7,0.8c0.6,0.2,1.3,0.2,1.9,0.1c0.7-0.1,1.3-0.3,1.8-0.7
		c0.5-0.3,1-0.8,1.4-1.3c0.4-0.5,0.6-1.1,0.8-1.7c0.2-0.6,0.2-1.3,0.1-1.9c-0.1-0.3,0-0.6,0.2-0.9c0.2-0.3,0.5-0.4,0.8-0.5
		c0.3-0.1,0.6,0,0.9,0.2c0.3,0.2,0.4,0.5,0.5,0.8c0.2,1,0.1,2-0.1,2.9c-0.2,0.9-0.6,1.8-1.2,2.5c-0.5,0.8-1.2,1.4-2,1.9
		C202.3,64.4,201.4,64.7,200.4,64.9z"/>
	<path class="st1" d="M210.7,63.2c-0.3,0-0.6-0.2-0.8-0.5c-0.2-0.3-0.3-0.6-0.2-0.9l3-19.7c0-0.3,0.1-0.5,0.3-0.7
		c0.2-0.2,0.4-0.3,0.7-0.3c0.3,0,0.5,0,0.7,0.1c0.2,0.1,0.4,0.3,0.5,0.5l6.7,13l2.4,4.7c0.2,0.3,0.2,0.6,0.1,0.9
		c-0.1,0.3-0.3,0.5-0.6,0.7c-0.1,0-0.1,0.1-0.2,0.1c-0.1,0-0.1,0-0.2,0c-0.3,0-0.5,0-0.7-0.1c-0.2-0.1-0.4-0.3-0.6-0.5l-2-3.9
		l-4.1,0.7c-0.3,0.1-0.6,0-0.9-0.2c-0.3-0.2-0.4-0.5-0.5-0.8c-0.1-0.3,0-0.6,0.2-0.9c0.2-0.3,0.5-0.4,0.8-0.5l3.4-0.5l-4.2-8.1
		l-2.4,15.9c0,0.3-0.2,0.6-0.5,0.8C211.3,63.1,211,63.2,210.7,63.2z"/>
	<path class="st1" d="M236.5,56.3c0.4-0.3,0.7-0.6,1-0.9c0.3-0.4,0.4-0.8,0.6-1.2c0.1-0.5,0.1-0.9,0.1-1.4s-0.2-0.9-0.5-1.3
		c-0.2-0.4-0.6-0.7-0.9-1s-0.8-0.5-1.2-0.6c-0.5-0.1-0.9-0.1-1.4,0l-1.4,0.2l-1.3,0.2c-0.8,0.1-1.6,0.1-2.4-0.1
		c-0.8-0.2-1.5-0.5-2.1-1c-0.6-0.4-1.1-1-1.6-1.7c-0.4-0.7-0.7-1.4-0.8-2.2s-0.1-1.6,0.1-2.4c0.2-0.8,0.5-1.5,1-2.1
		c0.4-0.6,1-1.1,1.7-1.6c0.7-0.4,1.4-0.7,2.2-0.8l1.3-0.2l1.4-0.2c0.8-0.1,1.6-0.1,2.4,0.1c0.8,0.2,1.4,0.5,2.1,1
		c0.6,0.4,1.1,1,1.6,1.7c0.4,0.7,0.7,1.4,0.8,2.2c0.1,0.3,0,0.6-0.2,0.9c-0.2,0.3-0.5,0.4-0.8,0.5c-0.3,0.1-0.6,0-0.9-0.2
		c-0.3-0.2-0.4-0.5-0.5-0.8c-0.1-0.5-0.2-0.9-0.5-1.3c-0.2-0.4-0.6-0.7-0.9-1s-0.8-0.5-1.2-0.6s-0.9-0.1-1.4-0.1l-1.4,0.2l-1.3,0.2
		c-0.5,0.1-0.9,0.2-1.3,0.5c-0.4,0.2-0.7,0.6-1,0.9c-0.3,0.4-0.5,0.8-0.6,1.2c-0.1,0.5-0.1,0.9-0.1,1.4c0.1,0.5,0.2,0.9,0.5,1.3
		c0.2,0.4,0.6,0.7,0.9,1c0.4,0.3,0.8,0.5,1.2,0.6c0.4,0.1,0.9,0.1,1.4,0l1.3-0.2l1.4-0.2c0.8-0.1,1.6-0.1,2.4,0.1
		c0.8,0.2,1.4,0.5,2.1,1s1.1,1,1.6,1.7c0.4,0.7,0.7,1.4,0.8,2.2s0.1,1.6-0.1,2.4c-0.2,0.8-0.5,1.4-1,2.1c-0.4,0.6-1,1.1-1.6,1.6
		c-0.7,0.4-1.4,0.7-2.2,0.8l-1.4,0.2l-1.3,0.2c-0.8,0.1-1.6,0.1-2.4-0.1c-0.8-0.2-1.5-0.5-2.1-1c-0.6-0.5-1.1-1-1.6-1.7
		c-0.4-0.7-0.7-1.4-0.8-2.2c-0.1-0.3,0-0.6,0.2-0.9c0.2-0.3,0.5-0.4,0.8-0.5c0.3-0.1,0.6,0,0.9,0.2c0.3,0.2,0.4,0.5,0.5,0.8
		c0.1,0.5,0.2,0.9,0.5,1.3c0.2,0.4,0.6,0.7,0.9,1c0.4,0.3,0.8,0.4,1.2,0.6c0.4,0.1,0.9,0.1,1.4,0.1l1.3-0.2l1.4-0.2
		C235.7,56.7,236.1,56.6,236.5,56.3z"/>
	<path class="st1" d="M244.2,57.7c-0.3,0-0.6-0.2-0.8-0.5c-0.2-0.3-0.3-0.6-0.2-0.9l3-19.7c0-0.3,0.1-0.5,0.3-0.7
		c0.2-0.2,0.4-0.3,0.7-0.3c0.3,0,0.5,0,0.7,0.1c0.2,0.1,0.4,0.3,0.5,0.5l6.7,13l2.4,4.7c0.2,0.3,0.2,0.6,0.1,0.9
		c-0.1,0.3-0.3,0.5-0.6,0.7c-0.1,0-0.1,0.1-0.2,0.1c-0.1,0-0.1,0-0.2,0c-0.3,0-0.5,0-0.7-0.1c-0.2-0.1-0.4-0.3-0.6-0.5l-2-3.9
		l-4.1,0.7c-0.3,0.1-0.6,0-0.9-0.2c-0.3-0.2-0.4-0.5-0.5-0.8c-0.1-0.3,0-0.6,0.2-0.9c0.2-0.3,0.5-0.4,0.8-0.5l3.4-0.5l-4.2-8.1
		l-2.4,15.9c0,0.3-0.2,0.6-0.5,0.8C244.8,57.7,244.5,57.7,244.2,57.7z"/>
</g>
<g>
	<path class="st2" d="M5.4,0.7h8l5.1,17.6v12.4h-5.1v-8.9H5.6v8.9H0.5V17.7L5.4,0.7z M12.9,16.9L10,5.8l-0.9,0l-3,11.1H12.9z"/>
	<path class="st2" d="M24.5,38.6V9.3h4.4l0.2,2c0.1-0.2,0.3-0.4,0.5-0.6c0.2-0.3,0.7-0.6,1.5-1C31.9,9.2,32.8,9,33.8,9
		c1.9,0,3.5,0.7,4.9,2c1.4,1.4,2.1,3.1,2.1,5.3v7.6c0,2-0.7,3.8-2.1,5.2c-1.4,1.4-3,2.1-4.9,2.1c-0.9,0-1.8-0.1-2.5-0.4
		c-0.7-0.3-1.2-0.5-1.4-0.8l-0.4-0.4v8.9H24.5z M35.7,23.8v-7.3c0-0.9-0.3-1.7-0.9-2.3c-0.6-0.6-1.3-0.9-2.2-0.9
		c-0.9,0-1.7,0.3-2.3,0.9c-0.6,0.6-0.9,1.3-0.9,2.3v7.3c0,0.9,0.3,1.7,0.9,2.3c0.6,0.6,1.3,0.9,2.2,0.9c0.9,0,1.6-0.3,2.2-0.9
		C35.4,25.5,35.7,24.7,35.7,23.8z"/>
	<path class="st2" d="M58.5,9.7L57,13.9c-0.6-0.3-1.3-0.5-2.3-0.5c-1,0-1.8,0.4-2.5,1.3c-0.6,0.8-1,2.1-1,3.7v12.4h-5V9.3H51
		l0.1,2.4c0-0.1,0.1-0.2,0.2-0.3c0.1-0.1,0.3-0.3,0.5-0.6c0.3-0.3,0.5-0.6,0.8-0.8c0.3-0.2,0.7-0.5,1.2-0.7c0.5-0.2,1-0.3,1.5-0.3
		c0.6,0,1.1,0.1,1.7,0.2c0.5,0.1,0.9,0.2,1.1,0.3L58.5,9.7z"/>
	<path class="st2" d="M71.1,24.5h5c-0.2,2-1.1,3.7-2.6,4.9c-1.5,1.2-3.3,1.8-5.5,1.8c-2.3,0-4.3-0.7-5.8-2.1
		C60.7,27.7,60,26,60,23.9v-7.6c0-2.1,0.8-3.8,2.3-5.2c1.5-1.4,3.4-2.1,5.8-2.1c2.3,0,4.3,0.7,5.7,2.1c1.5,1.4,2.2,3.1,2.2,5.2v5.5
		H64.9v2.1c0,0.9,0.3,1.7,0.9,2.2c0.6,0.6,1.3,0.9,2.2,0.9c0.8,0,1.5-0.2,2-0.6c0.5-0.4,0.8-0.8,0.9-1.2L71.1,24.5z M64.9,16.3v1.4
		h6.2v-1.4c0-0.9-0.3-1.6-0.9-2.1c-0.6-0.5-1.3-0.8-2.2-0.8c-0.8,0-1.6,0.3-2.2,0.8C65.2,14.7,64.9,15.4,64.9,16.3z"/>
	<path class="st2" d="M93,30.8v-14c0-1-0.3-1.8-0.8-2.4c-0.6-0.6-1.3-0.9-2.3-0.9c-0.9,0-1.7,0.3-2.3,0.9c-0.6,0.6-0.9,1.4-0.9,2.5
		v14h-4.9V9.3h4.6l0.3,2.1c0.1-0.2,0.3-0.4,0.5-0.7c0.2-0.3,0.7-0.6,1.5-1.1C89.4,9.2,90.3,9,91.3,9c2,0,3.6,0.7,4.8,2.1
		c1.2,1.4,1.8,3.3,1.8,5.7v14.1H93z"/>
	<path class="st2" d="M119.5,0.7v30.1h-4.4L115,29c-0.1,0.2-0.3,0.4-0.5,0.6c-0.2,0.2-0.8,0.6-1.6,1c-0.8,0.4-1.7,0.6-2.7,0.6
		c-1.9,0-3.5-0.7-4.8-2c-1.3-1.4-2-3.1-2-5.3v-7.6c0-2,0.7-3.8,2.1-5.2c1.4-1.4,3.1-2.1,4.9-2.1c1,0,1.8,0.2,2.5,0.5
		c0.7,0.3,1.2,0.7,1.4,1l0.3,0.5V0.7H119.5z M108.3,16.3v7.4c0,0.9,0.3,1.7,0.9,2.3c0.6,0.6,1.3,0.9,2.2,0.9c0.9,0,1.7-0.3,2.3-0.9
		c0.6-0.6,0.9-1.3,0.9-2.3v-7.2c0-1.1-0.3-1.9-0.9-2.5c-0.6-0.6-1.3-0.9-2.3-0.9c-0.9,0-1.6,0.3-2.2,0.9
		C108.6,14.6,108.3,15.4,108.3,16.3z"/>
	<path class="st2" d="M125.5,6.2V0.7h5.5v5.5H125.5z M125.7,30.8V9.3h5.1v21.5H125.7z"/>
	<path class="st2" d="M150.9,13.7l-9,12.7h9.1v4.5h-14.9v-4.3l8.9-12.7h-8.4V9.3h14.2V13.7z"/>
	<path class="st2" d="M166.6,30.8l-0.2-2.3c-0.1,0.2-0.3,0.4-0.6,0.7c-0.3,0.3-0.9,0.7-1.8,1.2c-1,0.5-2,0.7-3.2,0.7
		c-1.9,0-3.5-0.6-4.6-1.8c-1.1-1.2-1.7-2.8-1.7-4.6c0-2,0.7-3.6,2.1-4.7c1.4-1.2,3.3-1.8,5.6-2l3.8-0.3v-1.5c0-0.9-0.2-1.6-0.7-2.1
		c-0.5-0.5-1.1-0.8-1.9-0.8c-0.8,0-1.4,0.2-2,0.7c-0.5,0.4-0.8,1-0.9,1.7h-4.9c0-1.9,0.7-3.5,2.1-4.9c1.4-1.3,3.2-2,5.4-2
		c2.4,0,4.3,0.7,5.7,2.1c1.4,1.4,2.1,3.1,2.1,5.3v14.6H166.6z M162.1,27c1.1,0,2-0.3,2.7-1c0.7-0.7,1.1-1.3,1.1-2.1v-2.5l-3.4,0.3
		c-1,0.1-1.7,0.4-2.3,0.8s-0.8,1.1-0.8,2c0,0.6,0.2,1.2,0.7,1.7C160.6,26.8,161.2,27,162.1,27z"/>
	<path class="st2" d="M182,9.3v23.2c0,1.8-0.6,3.4-1.8,4.6c-1.2,1.2-2.7,1.9-4.5,1.9c-0.9,0-1.7-0.2-2.5-0.5c-0.8-0.3-1.5-0.7-1.9-1
		l-0.6-0.5l2.8-3.7c0.6,0.7,1.3,1,2,1c0.4,0,0.8-0.1,1.1-0.4c0.3-0.3,0.5-0.7,0.5-1.2V9.3H182z M176.7,6.2V0.7h5.5v5.5H176.7z"/>
	<path class="st2" d="M198.9,24.5h5c-0.2,2-1.1,3.7-2.6,4.9c-1.5,1.2-3.3,1.8-5.5,1.8c-2.3,0-4.3-0.7-5.8-2.1
		c-1.5-1.4-2.2-3.2-2.2-5.2v-7.6c0-2.1,0.8-3.8,2.3-5.2c1.5-1.4,3.4-2.1,5.8-2.1c2.3,0,4.3,0.7,5.7,2.1c1.5,1.4,2.2,3.1,2.2,5.2v5.5
		h-11.1v2.1c0,0.9,0.3,1.7,0.9,2.2c0.6,0.6,1.3,0.9,2.2,0.9c0.8,0,1.5-0.2,2-0.6c0.5-0.4,0.8-0.8,0.9-1.2L198.9,24.5z M192.7,16.3
		v1.4h6.2v-1.4c0-0.9-0.3-1.6-0.9-2.1c-0.6-0.5-1.3-0.8-2.2-0.8c-0.8,0-1.6,0.3-2.2,0.8C193,14.7,192.7,15.4,192.7,16.3z"/>
	<path class="st2" d="M18.5,56v1.3c0,2.3-0.9,4.4-2.6,6c-1.7,1.7-3.9,2.5-6.4,2.5s-4.6-0.8-6.4-2.5c-1.7-1.7-2.6-3.7-2.6-6V43.2
		c0-2.3,0.9-4.3,2.6-5.9c1.8-1.7,3.9-2.5,6.3-2.5c1.5,0,2.9,0.3,4.1,0.8s2.1,1.3,2.8,2.2c0.6,0.9,1.1,1.8,1.4,2.8
		c0.3,1,0.5,1.9,0.5,2.9H13c0-1-0.3-1.9-0.9-2.7c-0.6-0.8-1.5-1.2-2.6-1.2c-1,0-1.9,0.3-2.6,1c-0.7,0.7-1,1.5-1,2.4v14.3
		c0,1.1,0.4,1.9,1.1,2.5c0.7,0.6,1.6,0.9,2.6,0.9c1,0,1.9-0.3,2.7-0.9c0.8-0.6,1.2-1.5,1.2-2.7V56H18.5z"/>
	<path class="st2" d="M35.8,44.2l-1.5,4.2c-0.6-0.3-1.3-0.5-2.3-0.5c-1,0-1.8,0.4-2.5,1.3c-0.6,0.8-1,2.1-1,3.7v12.4h-5V43.8h4.7
		l0.1,2.4c0-0.1,0.1-0.2,0.2-0.3c0.1-0.1,0.3-0.3,0.5-0.6c0.3-0.3,0.5-0.6,0.8-0.8c0.3-0.2,0.7-0.5,1.2-0.7c0.5-0.2,1-0.3,1.5-0.3
		c0.6,0,1.1,0.1,1.7,0.2c0.5,0.1,0.9,0.2,1.1,0.3L35.8,44.2z"/>
	<path class="st2" d="M48.4,59h5c-0.2,2-1.1,3.7-2.6,4.9c-1.5,1.2-3.3,1.8-5.5,1.8c-2.3,0-4.3-0.7-5.8-2.1c-1.5-1.4-2.2-3.2-2.2-5.2
		v-7.6c0-2.1,0.8-3.8,2.3-5.2c1.5-1.4,3.4-2.1,5.8-2.1c2.3,0,4.3,0.7,5.7,2.1c1.5,1.4,2.2,3.1,2.2,5.2v5.5H42.2v2.1
		c0,0.9,0.3,1.7,0.9,2.2c0.6,0.6,1.3,0.9,2.2,0.9c0.8,0,1.5-0.2,2-0.6c0.5-0.4,0.8-0.8,0.9-1.2L48.4,59z M42.2,50.8v1.4h6.2v-1.4
		c0-0.9-0.3-1.6-0.9-2.1c-0.6-0.5-1.3-0.8-2.2-0.8c-0.8,0-1.6,0.3-2.2,0.8C42.5,49.2,42.2,49.9,42.2,50.8z"/>
	<path class="st2" d="M69.8,65.3L69.6,63c-0.1,0.2-0.3,0.4-0.6,0.7c-0.3,0.3-0.9,0.7-1.8,1.2c-1,0.5-2,0.7-3.2,0.7
		c-1.9,0-3.5-0.6-4.6-1.8c-1.1-1.2-1.7-2.8-1.7-4.6c0-2,0.7-3.6,2.1-4.7c1.4-1.2,3.3-1.8,5.6-2l3.8-0.3v-1.5c0-0.9-0.2-1.6-0.7-2.1
		c-0.5-0.5-1.1-0.8-1.9-0.8c-0.8,0-1.4,0.2-2,0.7c-0.5,0.4-0.8,1-0.9,1.7h-4.9c0-1.9,0.7-3.5,2.1-4.9c1.4-1.3,3.2-2,5.4-2
		c2.4,0,4.3,0.7,5.7,2.1c1.4,1.4,2.1,3.1,2.1,5.3v14.6H69.8z M65.4,61.5c1.1,0,2-0.3,2.7-1c0.7-0.7,1.1-1.3,1.1-2.1V56l-3.4,0.3
		c-1,0.1-1.7,0.4-2.3,0.8c-0.5,0.5-0.8,1.1-0.8,2c0,0.6,0.2,1.2,0.7,1.7C63.8,61.3,64.5,61.5,65.4,61.5z"/>
	<path class="st2" d="M77.8,48.3v-4.5h2.8v-5.6h5v5.6h6.7v4.5h-6.7v11c0,0.6,0.2,1.1,0.6,1.4c0.4,0.3,0.8,0.5,1.4,0.5
		c0.5,0,1-0.2,1.3-0.5c0.3-0.3,0.5-0.8,0.5-1.4v-0.6H94v0.3c0,2-0.6,3.6-1.9,4.8c-1.3,1.2-2.8,1.8-4.7,1.8c-2.1,0-3.7-0.6-4.9-1.9
		c-1.2-1.3-1.8-3.1-1.8-5.4V48.3H77.8z"/>
	<path class="st2" d="M97.9,40.7v-5.5h5.5v5.5H97.9z M98.1,65.3V43.8h5.1v21.5H98.1z"/>
	<path class="st2" d="M113.5,43.8v8.3l2.7,8.9l0.4,0l2.8-8.9v-8.3h5v7.7l-4.6,13.8h-7l-4.4-13.1v-8.4H113.5z"/>
	<path class="st2" d="M145.3,50.8v7.6c0,2.1-0.7,3.8-2.2,5.2c-1.5,1.4-3.4,2.1-5.8,2.1c-2.4,0-4.4-0.7-5.8-2.1
		c-1.5-1.4-2.2-3.2-2.2-5.2v-7.6c0-2.1,0.7-3.8,2.2-5.2c1.5-1.4,3.4-2.1,5.8-2.1c2.4,0,4.3,0.7,5.8,2.1
		C144.6,46.9,145.3,48.7,145.3,50.8z M140.4,58.1V51c0-0.9-0.3-1.7-0.9-2.3c-0.6-0.6-1.3-0.9-2.2-0.9c-0.9,0-1.6,0.3-2.2,0.9
		c-0.6,0.6-0.9,1.3-0.9,2.3v7.1c0,0.9,0.3,1.7,0.9,2.3c0.6,0.6,1.4,0.9,2.3,0.9c0.9,0,1.6-0.3,2.2-0.9
		C140.1,59.9,140.4,59.1,140.4,58.1z"/>
</g>
<g>
	<path class="st2" d="M1.6,96.8v-1.5c0-0.3,0.2-0.4,0.4-0.4h1.5c0.3,0,0.4,0.2,0.4,0.4v1.5c0,2.9,2.1,4.8,5.1,4.8
		c3.1,0,5.2-1.9,5.2-4.8V80.9c0-0.3,0.2-0.4,0.4-0.4h1.5c0.3,0,0.4,0.2,0.4,0.4v15.9c0,4.1-3,6.8-7.5,6.8S1.6,100.9,1.6,96.8z"/>
	<path class="st2" d="M32.6,86.8h1.5c0.3,0,0.4,0.2,0.4,0.4v15.7c0,0.3-0.2,0.4-0.4,0.4h-1.5c-0.3,0-0.4-0.2-0.4-0.4v-1.2
		c0-0.1-0.1-0.2-0.2-0.1c-0.9,1.2-2.3,2-4.3,2c-3.1,0-5.7-1.9-5.7-5.4V87.3c0-0.3,0.2-0.4,0.4-0.4h1.5c0.3,0,0.4,0.2,0.4,0.4v10.2
		c0,2.4,1.5,4,3.9,4c2.5,0,4-1.6,4-4V87.3C32.2,87,32.4,86.8,32.6,86.8z"/>
	<path class="st2" d="M50.3,86.8h1.5c0.3,0,0.4,0.2,0.4,0.4v15.5c0,5.5-3.8,7.3-8.9,7c-0.3,0-0.4-0.2-0.4-0.5l0.1-1.3
		c0-0.3,0.2-0.4,0.4-0.4c4.6,0.2,6.6-1.3,6.6-4.9v-1.1c0-0.1-0.1-0.2-0.2-0.1c-0.9,1.1-2.2,1.9-4.2,1.9c-2.7,0-5.2-1.5-6-4.4
		c-0.3-1-0.4-2.4-0.4-4c0-1.7,0.1-3.1,0.4-4.2c0.8-2.5,2.9-4.3,5.8-4.3c2,0,3.4,0.7,4.4,1.9c0.1,0.1,0.2,0.1,0.2-0.1v-1.1
		C49.9,87,50,86.8,50.3,86.8z M49.9,95.1c0-2.3,0-2.6-0.2-3.3c-0.3-1.8-1.7-3.2-3.9-3.2c-2.2,0-3.6,1.4-4.1,3.2
		c-0.2,0.6-0.3,1.5-0.3,3.3c0,1.8,0.2,2.8,0.3,3.3c0.4,1.8,1.9,3.2,4.1,3.2c2.3,0,3.6-1.4,3.9-3.1C49.8,97.7,49.9,97.3,49.9,95.1z"
		/>
	<path class="st2" d="M69,92.1v10.9c0,0.3-0.2,0.4-0.4,0.4h-1.5c-0.3,0-0.4-0.2-0.4-0.4v-1.2c0-0.1-0.1-0.2-0.2-0.1
		c-1.2,1.3-3,1.9-5.1,1.9c-2.8,0-5.4-1.3-5.4-4.8c0-3.3,2.5-5.3,6.7-5.3h3.8c0.1,0,0.2-0.1,0.2-0.2v-1.2c0-2.1-1.1-3.6-3.8-3.6
		c-2.1,0-3.4,0.8-3.8,2.2c-0.1,0.3-0.2,0.4-0.5,0.3L57,90.9c-0.3,0-0.4-0.1-0.4-0.4c0.4-2.4,2.8-4,6.2-4C66.8,86.6,69,88.8,69,92.1z
		 M66.7,98.1v-2.5c0-0.1-0.1-0.2-0.2-0.2h-3.4c-2.8,0-4.8,1.2-4.8,3.3c0,2,1.6,2.9,3.6,2.9C64.4,101.6,66.7,100.3,66.7,98.1z"/>
	<path class="st2" d="M82.3,87.1c0.2,0.1,0.3,0.3,0.2,0.5L82.2,89c-0.1,0.3-0.2,0.4-0.5,0.3c-0.4-0.1-0.9-0.2-1.6-0.2
		c-2.3,0.1-3.9,1.8-3.9,4.3v9.5c0,0.3-0.2,0.4-0.4,0.4h-1.5c-0.3,0-0.4-0.2-0.4-0.4V87.3c0-0.3,0.2-0.4,0.4-0.4h1.5
		c0.3,0,0.4,0.2,0.4,0.4v1.8c0,0.2,0.1,0.2,0.2,0.1c0.9-1.5,2.3-2.5,4.2-2.5C81.3,86.7,81.8,86.8,82.3,87.1z"/>
	<path class="st2" d="M92.1,99.1c-0.3-1.1-0.4-2.4-0.4-4c0-1.8,0.2-3,0.4-4c0.8-2.7,3.2-4.5,6.3-4.5c3.3,0,5.7,1.9,6.4,4.2
		c0.1,0.3,0.2,0.7,0.2,0.9c0,0.3-0.1,0.5-0.4,0.5l-1.4,0.2c-0.3,0-0.4-0.1-0.5-0.4c0-0.1,0-0.3-0.1-0.4c-0.4-1.6-2-3-4.2-3
		c-2.2,0-3.7,1.3-4.1,3.2c-0.2,0.7-0.3,1.8-0.3,3.3c0,1.6,0.1,2.7,0.3,3.3c0.4,1.9,1.9,3.2,4.1,3.2c2.2,0,3.8-1.3,4.2-2.9
		c0-0.1,0-0.1,0-0.2l0,0c0-0.3,0.2-0.4,0.5-0.4l1.4,0.2c0.3,0,0.4,0.2,0.4,0.5c0,0.1-0.1,0.3-0.1,0.6c-0.7,2.5-3.2,4.2-6.4,4.2
		C95.2,103.6,92.9,101.8,92.1,99.1z"/>
	<path class="st2" d="M109,99.1c-0.3-1.1-0.5-2.4-0.5-4c0-1.6,0.1-2.9,0.4-4c0.8-2.8,3.2-4.5,6.4-4.5c3.1,0,5.5,1.7,6.3,4.5
		c0.3,1.1,0.5,2.5,0.5,4c0,1.6-0.1,2.9-0.5,4c-0.8,2.8-3.2,4.5-6.3,4.5C112.2,103.6,109.9,101.9,109,99.1z M119.6,98.4
		c0.2-0.8,0.3-2,0.3-3.3c0-1.4-0.1-2.6-0.3-3.3c-0.5-1.9-2.1-3.2-4.2-3.2c-2.1,0-3.7,1.3-4.2,3.2c-0.2,0.7-0.3,1.9-0.3,3.3
		c0,1.4,0.1,2.6,0.3,3.3c0.5,2,2.1,3.2,4.2,3.2C117.5,101.6,119.1,100.3,119.6,98.4z"/>
	<path class="st2" d="M139.4,92.3v10.7c0,0.3-0.2,0.4-0.4,0.4h-1.5c-0.3,0-0.4-0.2-0.4-0.4V92.7c0-2.4-1.6-4.1-3.9-4.1
		c-2.2,0-3.8,1.4-4,3.4v10.9c0,0.3-0.2,0.4-0.4,0.4h-1.5c-0.3,0-0.4-0.2-0.4-0.4V87.3c0-0.3,0.2-0.4,0.4-0.4h1.5
		c0.3,0,0.4,0.2,0.4,0.4v1.2c0,0.1,0.1,0.2,0.2,0.1c0.9-1.3,2.5-2,4.4-2C137.2,86.6,139.4,88.8,139.4,92.3z"/>
	<path class="st2" d="M155.1,99.2c0.1-0.2,0.3-0.3,0.6-0.2l0.9,0.5c0.2,0.1,0.3,0.3,0.2,0.6c-1,2.1-3.1,3.6-6.1,3.6
		c-3.1,0-5.2-1.6-6.1-4.1c-0.5-1.2-0.6-2.7-0.6-4.5c0-1.7,0-2.8,0.3-3.8c0.7-2.8,3.1-4.7,6.3-4.7c3.9,0,5.9,2.2,6.5,5.6
		c0.2,0.9,0.2,1.7,0.2,3.3c0,0.3-0.2,0.4-0.4,0.4h-10.4c-0.1,0-0.2,0.1-0.2,0.2c0,1.1,0.1,1.9,0.2,2.4c0.5,1.9,2.1,3.2,4.4,3.2
		C152.9,101.6,154.3,100.6,155.1,99.2z M146.5,91.7c-0.2,0.5-0.2,1.3-0.3,2.2c0,0.1,0.1,0.2,0.2,0.2h8.4c0.1,0,0.2-0.1,0.2-0.2
		c0-0.9-0.1-1.6-0.2-2.1c-0.5-1.9-2-3.2-4.2-3.2C148.3,88.6,146.9,89.9,146.5,91.7z"/>
	<path class="st2" d="M161.8,99.1c-0.3-1.1-0.4-2.4-0.4-4c0-1.8,0.2-3,0.4-4c0.8-2.7,3.2-4.5,6.3-4.5c3.3,0,5.7,1.9,6.4,4.2
		c0.1,0.3,0.2,0.7,0.2,0.9c0,0.3-0.1,0.5-0.4,0.5l-1.4,0.2c-0.3,0-0.4-0.1-0.5-0.4c0-0.1,0-0.3-0.1-0.4c-0.4-1.6-2-3-4.2-3
		c-2.2,0-3.7,1.3-4.1,3.2c-0.2,0.7-0.3,1.8-0.3,3.3c0,1.6,0.1,2.7,0.3,3.3c0.4,1.9,1.9,3.2,4.1,3.2c2.2,0,3.8-1.3,4.2-2.9
		c0-0.1,0-0.1,0-0.2l0,0c0-0.3,0.2-0.4,0.5-0.4l1.4,0.2c0.3,0,0.4,0.2,0.4,0.5c0,0.1-0.1,0.3-0.1,0.6c-0.7,2.5-3.2,4.2-6.4,4.2
		C164.9,103.6,162.6,101.8,161.8,99.1z"/>
	<path class="st2" d="M185.8,88.8h-3.6c-0.1,0-0.2,0.1-0.2,0.2v9.5c0,2.1,0.9,2.8,2.9,2.8h0.7c0.3,0,0.4,0.2,0.4,0.4v1.1
		c0,0.3-0.1,0.4-0.4,0.5h-1.1c-2.8,0-4.8-0.8-4.8-4.1V88.9c0-0.1-0.1-0.2-0.2-0.2h-1.9c-0.3,0-0.4-0.2-0.4-0.4v-1.1
		c0-0.3,0.2-0.4,0.4-0.4h1.9c0.1,0,0.2-0.1,0.2-0.2V83c0-0.3,0.2-0.4,0.4-0.4h1.4c0.3,0,0.4,0.2,0.4,0.4v3.7c0,0.1,0.1,0.2,0.2,0.2
		h3.6c0.3,0,0.4,0.2,0.4,0.4v1.1C186.3,88.6,186.1,88.8,185.8,88.8z"/>
	<path class="st2" d="M202.6,92.1v10.9c0,0.3-0.2,0.4-0.4,0.4h-1.5c-0.3,0-0.4-0.2-0.4-0.4v-1.2c0-0.1-0.1-0.2-0.2-0.1
		c-1.2,1.3-3,1.9-5.1,1.9c-2.8,0-5.4-1.3-5.4-4.8c0-3.3,2.5-5.3,6.7-5.3h3.8c0.1,0,0.2-0.1,0.2-0.2v-1.2c0-2.1-1.1-3.6-3.8-3.6
		c-2.1,0-3.4,0.8-3.8,2.2c-0.1,0.3-0.2,0.4-0.5,0.3l-1.6-0.2c-0.3,0-0.4-0.1-0.4-0.4c0.4-2.4,2.8-4,6.2-4
		C200.4,86.6,202.6,88.8,202.6,92.1z M200.3,98.1v-2.5c0-0.1-0.1-0.2-0.2-0.2h-3.4c-2.8,0-4.8,1.2-4.8,3.3c0,2,1.6,2.9,3.6,2.9
		C197.9,101.6,200.3,100.3,200.3,98.1z"/>
</g>
</svg>
