<?xml version="1.0" encoding="utf-8"?>
<!-- Generator: Adobe Illustrator 24.1.2, SVG Export Plug-In . SVG Version: 6.00 Build 0)  -->
<svg version="1.1" id="Layer_1" xmlns="http://www.w3.org/2000/svg" xmlns:xlink="http://www.w3.org/1999/xlink" x="0px" y="0px"
	 viewBox="0 0 270 120" style="enable-background:new 0 0 270 120;" xml:space="preserve">
<style type="text/css">
	.st0{fill:#FFCC07;}
	.st1{fill:#EB0C8B;}
	.st2{fill:#231F20;}
</style>
<rect x="134.2" y="36.6" transform="matrix(0.9874 -0.1581 0.1581 0.9874 -5.8588 32.3652)" class="st0" width="132.6" height="32.7"/>
<g>
	<path class="st1" d="M163.4,68c0.3-0.1,0.6,0,0.9,0.2s0.5,0.5,0.5,0.8c0.1,0.3,0,0.6-0.2,0.9s-0.5,0.4-0.8,0.5l-11.4,1.9
		c-0.3,0.1-0.6,0-0.9-0.2s-0.4-0.5-0.5-0.8l-3.1-18.7c-0.1-0.3,0-0.6,0.2-0.9c0.2-0.3,0.5-0.4,0.8-0.5l11.4-1.9
		c0.3-0.1,0.6,0,0.9,0.2s0.5,0.5,0.5,0.8c0.1,0.3,0,0.6-0.2,0.9c-0.2,0.3-0.5,0.4-0.8,0.5l-10.2,1.7l2.7,16.3L163.4,68z M154.1,62.4
		c-0.3,0.1-0.6,0-0.9-0.2c-0.3-0.2-0.4-0.5-0.5-0.8c-0.1-0.3,0-0.6,0.2-0.9c0.2-0.3,0.5-0.4,0.8-0.5l6.5-1.1c0.3-0.1,0.6,0,0.9,0.2
		c0.3,0.2,0.4,0.5,0.5,0.8c0.1,0.3,0,0.6-0.2,0.9c-0.2,0.3-0.5,0.4-0.8,0.5L154.1,62.4z"/>
	<path class="st1" d="M165.1,48.6c0.2-0.1,0.5-0.1,0.8-0.1c0.3,0.1,0.5,0.2,0.7,0.4l12.3,13.7L176.5,48c-0.1-0.3,0-0.6,0.2-0.9
		c0.2-0.3,0.5-0.4,0.8-0.5c0.3-0.1,0.6,0,0.9,0.2c0.3,0.2,0.4,0.5,0.5,0.8l3,18.7c0,0.3,0,0.5-0.1,0.8c-0.1,0.2-0.3,0.4-0.6,0.5
		c-0.1,0.1-0.3,0.1-0.3,0.1c-0.5,0.1-0.8-0.1-1.1-0.4l-12.3-13.6l2.4,14.6c0.1,0.3,0,0.6-0.2,0.9c-0.2,0.3-0.5,0.4-0.8,0.5
		c-0.3,0.1-0.6,0-0.9-0.2c-0.3-0.2-0.4-0.5-0.5-0.8l-3-18.7c0-0.3,0-0.5,0.1-0.8C164.7,48.9,164.8,48.8,165.1,48.6z"/>
	<path class="st1" d="M200.6,64.4c-1,0.2-2,0.1-2.9-0.1c-0.9-0.2-1.8-0.6-2.5-1.2c-0.8-0.5-1.4-1.2-1.9-2c-0.5-0.8-0.9-1.7-1-2.7
		l-1.1-6.7c-0.2-1-0.1-2,0.1-2.9c0.2-0.9,0.6-1.8,1.2-2.5c0.5-0.8,1.2-1.4,2-1.9c0.8-0.5,1.7-0.9,2.7-1c1-0.2,2-0.1,2.9,0.1
		c0.9,0.2,1.8,0.6,2.5,1.2c0.8,0.5,1.4,1.2,1.9,2c0.5,0.8,0.9,1.7,1,2.7c0.1,0.3,0,0.6-0.2,0.9c-0.2,0.3-0.5,0.5-0.8,0.5
		c-0.3,0.1-0.6,0-0.9-0.2c-0.3-0.2-0.4-0.5-0.5-0.8c-0.1-0.7-0.3-1.3-0.7-1.8c-0.3-0.5-0.8-1-1.3-1.4c-0.5-0.4-1.1-0.6-1.7-0.8
		c-0.6-0.2-1.3-0.2-1.9-0.1c-0.7,0.1-1.3,0.3-1.8,0.7c-0.5,0.3-1,0.8-1.4,1.3c-0.4,0.5-0.6,1.1-0.8,1.7c-0.2,0.6-0.2,1.3-0.1,1.9
		l1.1,6.7c0.1,0.7,0.3,1.3,0.7,1.8c0.3,0.5,0.8,1,1.3,1.4c0.5,0.4,1.1,0.6,1.7,0.8c0.6,0.2,1.3,0.2,1.9,0.1c0.7-0.1,1.3-0.3,1.8-0.7
		c0.5-0.3,1-0.8,1.4-1.3c0.4-0.5,0.6-1.1,0.8-1.7c0.2-0.6,0.2-1.3,0.1-1.9c-0.1-0.3,0-0.6,0.2-0.9c0.2-0.3,0.5-0.4,0.8-0.5
		c0.3-0.1,0.6,0,0.9,0.2c0.3,0.2,0.4,0.5,0.5,0.8c0.2,1,0.1,2-0.1,2.9c-0.2,0.9-0.6,1.8-1.2,2.5c-0.5,0.8-1.2,1.4-2,1.9
		C202.5,63.9,201.6,64.3,200.6,64.4z"/>
	<path class="st1" d="M210.9,62.7c-0.3,0-0.6-0.2-0.8-0.5c-0.2-0.3-0.3-0.6-0.2-0.9l3-19.7c0-0.3,0.1-0.5,0.3-0.7
		c0.2-0.2,0.4-0.3,0.7-0.3c0.3,0,0.5,0,0.7,0.1c0.2,0.1,0.4,0.3,0.5,0.5l6.7,13l2.4,4.7c0.2,0.3,0.2,0.6,0.1,0.9s-0.3,0.5-0.6,0.7
		c-0.1,0-0.1,0.1-0.2,0.1c-0.1,0-0.1,0-0.2,0c-0.3,0-0.5,0-0.7-0.1c-0.2-0.1-0.4-0.3-0.6-0.5l-2-3.9l-4.1,0.7
		c-0.3,0.1-0.6,0-0.9-0.2c-0.3-0.2-0.4-0.5-0.5-0.8c-0.1-0.3,0-0.6,0.2-0.9c0.2-0.3,0.5-0.4,0.8-0.5l3.4-0.5l-4.2-8.1l-2.4,15.9
		c0,0.3-0.2,0.6-0.5,0.8C211.6,62.7,211.3,62.7,210.9,62.7z"/>
	<path class="st1" d="M236.8,55.8c0.4-0.3,0.7-0.6,1-0.9c0.3-0.4,0.4-0.8,0.6-1.2c0.1-0.5,0.1-0.9,0.1-1.4c-0.1-0.5-0.2-0.9-0.5-1.3
		c-0.2-0.4-0.6-0.7-0.9-1s-0.8-0.5-1.2-0.6c-0.5-0.1-0.9-0.1-1.4,0l-1.4,0.2l-1.3,0.2c-0.8,0.1-1.6,0.1-2.4-0.1
		c-0.8-0.2-1.5-0.5-2.1-1c-0.6-0.4-1.1-1-1.6-1.7c-0.4-0.7-0.7-1.4-0.8-2.2s-0.1-1.6,0.1-2.4c0.2-0.8,0.5-1.5,1-2.1
		c0.4-0.6,1-1.1,1.7-1.6c0.7-0.4,1.4-0.7,2.2-0.8l1.3-0.2l1.4-0.2c0.8-0.1,1.6-0.1,2.4,0.1c0.8,0.2,1.4,0.5,2.1,1
		c0.6,0.4,1.1,1,1.6,1.7c0.4,0.7,0.7,1.4,0.8,2.2c0.1,0.3,0,0.6-0.2,0.9c-0.2,0.3-0.5,0.4-0.8,0.5c-0.3,0.1-0.6,0-0.9-0.2
		c-0.3-0.2-0.4-0.5-0.5-0.8c-0.1-0.5-0.2-0.9-0.5-1.3c-0.2-0.4-0.6-0.7-0.9-1c-0.4-0.3-0.8-0.5-1.2-0.6c-0.5-0.1-0.9-0.1-1.4-0.1
		l-1.4,0.2l-1.3,0.2c-0.5,0.1-0.9,0.2-1.3,0.5c-0.4,0.2-0.7,0.6-1,0.9c-0.3,0.4-0.5,0.8-0.6,1.2c-0.1,0.5-0.1,0.9-0.1,1.4
		c0.1,0.5,0.2,0.9,0.5,1.3c0.2,0.4,0.6,0.7,0.9,1c0.4,0.3,0.8,0.5,1.2,0.6c0.4,0.1,0.9,0.1,1.4,0l1.3-0.2l1.4-0.2
		c0.8-0.1,1.6-0.1,2.4,0.1c0.8,0.2,1.4,0.5,2.1,1c0.6,0.4,1.1,1,1.6,1.7c0.4,0.7,0.7,1.4,0.8,2.2s0.1,1.6-0.1,2.4
		c-0.2,0.8-0.5,1.4-1,2.1c-0.4,0.6-1,1.1-1.6,1.6c-0.7,0.4-1.4,0.7-2.2,0.8l-1.4,0.2l-1.3,0.2c-0.8,0.1-1.6,0.1-2.4-0.1
		c-0.8-0.2-1.5-0.5-2.1-1c-0.6-0.5-1.1-1-1.6-1.7c-0.4-0.7-0.7-1.4-0.8-2.2c-0.1-0.3,0-0.6,0.2-0.9c0.2-0.3,0.5-0.4,0.8-0.5
		c0.3-0.1,0.6,0,0.9,0.2c0.3,0.2,0.4,0.5,0.5,0.8c0.1,0.5,0.2,0.9,0.5,1.3c0.2,0.4,0.6,0.7,0.9,1c0.4,0.3,0.8,0.4,1.2,0.6
		c0.4,0.1,0.9,0.1,1.4,0.1l1.3-0.2l1.4-0.2C235.9,56.3,236.4,56.1,236.8,55.8z"/>
	<path class="st1" d="M244.4,57.2c-0.3,0-0.6-0.2-0.8-0.5c-0.2-0.3-0.3-0.6-0.2-0.9l3-19.7c0-0.3,0.1-0.5,0.3-0.7
		c0.2-0.2,0.4-0.3,0.7-0.3c0.3,0,0.5,0,0.7,0.1c0.2,0.1,0.4,0.3,0.5,0.5l6.7,13l2.4,4.7c0.2,0.3,0.2,0.6,0.1,0.9
		c-0.1,0.3-0.3,0.5-0.6,0.7c-0.1,0-0.1,0.1-0.2,0.1c-0.1,0-0.1,0-0.2,0c-0.3,0-0.5,0-0.7-0.1c-0.2-0.1-0.4-0.3-0.6-0.5l-2-3.9
		l-4.1,0.7c-0.3,0.1-0.6,0-0.9-0.2c-0.3-0.2-0.4-0.5-0.5-0.8c-0.1-0.3,0-0.6,0.2-0.9c0.2-0.3,0.5-0.4,0.8-0.5l3.4-0.5l-4.2-8.1
		l-2.4,15.9c0,0.3-0.2,0.6-0.5,0.8C245.1,57.2,244.8,57.3,244.4,57.2z"/>
</g>
<g>
	<path class="st2" d="M5.7,0.3h8l5.1,17.6v12.4h-5.1v-8.9H5.8v8.9H0.8V17.2L5.7,0.3z M13.2,16.4l-3-11.1l-0.9,0l-3,11.1H13.2z"/>
	<path class="st2" d="M24.7,38.1V8.9h4.4l0.2,2c0.1-0.2,0.3-0.4,0.5-0.6c0.2-0.3,0.7-0.6,1.5-1c0.8-0.4,1.7-0.6,2.7-0.6
		c1.9,0,3.5,0.7,4.9,2c1.4,1.4,2.1,3.1,2.1,5.3v7.6c0,2-0.7,3.8-2.1,5.2c-1.4,1.4-3,2.1-4.9,2.1c-0.9,0-1.8-0.1-2.5-0.4
		c-0.7-0.3-1.2-0.5-1.4-0.8l-0.4-0.4v8.9H24.7z M36,23.3V16c0-0.9-0.3-1.7-0.9-2.3c-0.6-0.6-1.3-0.9-2.2-0.9c-0.9,0-1.7,0.3-2.3,0.9
		C30,14.3,29.7,15,29.7,16v7.3c0,0.9,0.3,1.7,0.9,2.3c0.6,0.6,1.3,0.9,2.2,0.9c0.9,0,1.6-0.3,2.2-0.9C35.7,25,36,24.3,36,23.3z"/>
	<path class="st2" d="M58.7,9.2l-1.5,4.2C56.7,13.1,55.9,13,55,13c-1,0-1.8,0.4-2.5,1.3c-0.6,0.8-1,2.1-1,3.7v12.4h-5V8.9h4.7
		l0.1,2.4c0-0.1,0.1-0.2,0.2-0.3c0.1-0.1,0.3-0.3,0.5-0.6c0.3-0.3,0.5-0.6,0.8-0.8c0.3-0.2,0.7-0.5,1.2-0.7c0.5-0.2,1-0.3,1.5-0.3
		c0.6,0,1.1,0.1,1.7,0.2c0.5,0.1,0.9,0.2,1.1,0.3L58.7,9.2z"/>
	<path class="st2" d="M71.3,24.1h5c-0.2,2-1.1,3.7-2.6,4.9c-1.5,1.2-3.3,1.8-5.5,1.8c-2.3,0-4.3-0.7-5.8-2.1
		c-1.5-1.4-2.2-3.2-2.2-5.2v-7.6c0-2.1,0.8-3.8,2.3-5.2c1.5-1.4,3.4-2.1,5.8-2.1c2.3,0,4.3,0.7,5.7,2.1c1.5,1.4,2.2,3.1,2.2,5.2v5.5
		H65.1v2.1c0,0.9,0.3,1.7,0.9,2.2c0.6,0.6,1.3,0.9,2.2,0.9c0.8,0,1.5-0.2,2-0.6c0.5-0.4,0.8-0.8,0.9-1.2L71.3,24.1z M65.1,15.8v1.4
		h6.2v-1.4c0-0.9-0.3-1.6-0.9-2.1c-0.6-0.5-1.3-0.8-2.2-0.8c-0.8,0-1.6,0.3-2.2,0.8C65.5,14.2,65.1,14.9,65.1,15.8z"/>
	<path class="st2" d="M93.2,30.4v-14c0-1-0.3-1.8-0.8-2.4C91.8,13.3,91,13,90.1,13c-0.9,0-1.7,0.3-2.3,0.9c-0.6,0.6-0.9,1.4-0.9,2.5
		v14h-4.9V8.9h4.6l0.3,2.1c0.1-0.2,0.3-0.4,0.5-0.7c0.2-0.3,0.7-0.6,1.5-1.1c0.8-0.4,1.7-0.7,2.7-0.7c2,0,3.6,0.7,4.8,2.1
		c1.2,1.4,1.8,3.3,1.8,5.7v14.1H93.2z"/>
	<path class="st2" d="M119.8,0.3v30.1h-4.4l-0.2-1.8c-0.1,0.2-0.3,0.4-0.5,0.6c-0.2,0.2-0.8,0.6-1.6,1c-0.8,0.4-1.7,0.6-2.7,0.6
		c-1.9,0-3.5-0.7-4.8-2c-1.3-1.4-2-3.1-2-5.3v-7.6c0-2,0.7-3.8,2.1-5.2c1.4-1.4,3.1-2.1,4.9-2.1c1,0,1.8,0.2,2.5,0.5
		c0.7,0.3,1.2,0.7,1.4,1l0.3,0.5V0.3H119.8z M108.5,15.9v7.4c0,0.9,0.3,1.7,0.9,2.3c0.6,0.6,1.3,0.9,2.2,0.9c0.9,0,1.7-0.3,2.3-0.9
		c0.6-0.6,0.9-1.3,0.9-2.3v-7.2c0-1.1-0.3-1.9-0.9-2.5c-0.6-0.6-1.3-0.9-2.3-0.9c-0.9,0-1.6,0.3-2.2,0.9
		C108.8,14.2,108.5,14.9,108.5,15.9z"/>
	<path class="st2" d="M125.8,5.8V0.3h5.5v5.5H125.8z M125.9,30.4V8.9h5.1v21.5H125.9z"/>
	<path class="st2" d="M151.1,13.2l-9,12.7h9.1v4.5h-14.9v-4.3l8.9-12.7h-8.4V8.9h14.2V13.2z"/>
	<path class="st2" d="M166.8,30.4l-0.2-2.3c-0.1,0.2-0.3,0.4-0.6,0.7c-0.3,0.3-0.9,0.7-1.8,1.2c-1,0.5-2,0.7-3.2,0.7
		c-1.9,0-3.5-0.6-4.6-1.8c-1.1-1.2-1.7-2.8-1.7-4.6c0-2,0.7-3.6,2.1-4.7c1.4-1.2,3.3-1.8,5.6-2l3.8-0.3v-1.5c0-0.9-0.2-1.6-0.7-2.1
		c-0.5-0.5-1.1-0.8-1.9-0.8c-0.8,0-1.4,0.2-2,0.7c-0.5,0.4-0.8,1-0.9,1.7h-4.9c0-1.9,0.7-3.5,2.1-4.9c1.4-1.3,3.2-2,5.4-2
		c2.4,0,4.3,0.7,5.7,2.1c1.4,1.4,2.1,3.1,2.1,5.3v14.6H166.8z M162.4,26.5c1.1,0,2-0.3,2.7-1c0.7-0.7,1.1-1.3,1.1-2.1V21l-3.4,0.3
		c-1,0.1-1.7,0.4-2.3,0.8s-0.8,1.1-0.8,2c0,0.6,0.2,1.2,0.7,1.7C160.8,26.3,161.5,26.5,162.4,26.5z"/>
	<path class="st2" d="M182.2,8.9V32c0,1.8-0.6,3.4-1.8,4.6c-1.2,1.2-2.7,1.9-4.5,1.9c-0.9,0-1.7-0.2-2.5-0.5c-0.8-0.3-1.5-0.7-1.9-1
		l-0.6-0.5l2.8-3.7c0.6,0.7,1.3,1,2,1c0.4,0,0.8-0.1,1.1-0.4c0.3-0.3,0.5-0.7,0.5-1.2V8.9H182.2z M176.9,5.8V0.3h5.5v5.5H176.9z"/>
	<path class="st2" d="M199.1,24.1h5c-0.2,2-1.1,3.7-2.6,4.9c-1.5,1.2-3.3,1.8-5.5,1.8c-2.3,0-4.3-0.7-5.8-2.1
		c-1.5-1.4-2.2-3.2-2.2-5.2v-7.6c0-2.1,0.8-3.8,2.3-5.2c1.5-1.4,3.4-2.1,5.8-2.1c2.3,0,4.3,0.7,5.7,2.1c1.5,1.4,2.2,3.1,2.2,5.2v5.5
		h-11.1v2.1c0,0.9,0.3,1.7,0.9,2.2c0.6,0.6,1.3,0.9,2.2,0.9c0.8,0,1.5-0.2,2-0.6c0.5-0.4,0.8-0.8,0.9-1.2L199.1,24.1z M192.9,15.8
		v1.4h6.2v-1.4c0-0.9-0.3-1.6-0.9-2.1c-0.6-0.5-1.3-0.8-2.2-0.8c-0.8,0-1.6,0.3-2.2,0.8C193.2,14.2,192.9,14.9,192.9,15.8z"/>
	<path class="st2" d="M18.7,55.5v1.3c0,2.3-0.9,4.4-2.6,6c-1.7,1.7-3.9,2.5-6.4,2.5s-4.6-0.8-6.4-2.5c-1.7-1.7-2.6-3.7-2.6-6V42.8
		c0-2.3,0.9-4.3,2.6-5.9c1.8-1.7,3.9-2.5,6.3-2.5c1.5,0,2.9,0.3,4.1,0.8s2.1,1.3,2.8,2.2s1.1,1.8,1.4,2.8c0.3,1,0.5,1.9,0.5,2.9
		h-5.2c0-1-0.3-1.9-0.9-2.7c-0.6-0.8-1.5-1.2-2.6-1.2c-1,0-1.9,0.3-2.6,1c-0.7,0.7-1,1.5-1,2.4V57c0,1.1,0.4,1.9,1.1,2.5
		c0.7,0.6,1.6,0.9,2.6,0.9c1,0,1.9-0.3,2.7-0.9c0.8-0.6,1.2-1.5,1.2-2.7v-1.3H18.7z"/>
	<path class="st2" d="M36,43.7l-1.5,4.2c-0.6-0.3-1.3-0.5-2.3-0.5c-1,0-1.8,0.4-2.5,1.3c-0.6,0.8-1,2.1-1,3.7v12.4h-5V43.4h4.7
		l0.1,2.4c0-0.1,0.1-0.2,0.2-0.3c0.1-0.1,0.3-0.3,0.5-0.6c0.3-0.3,0.5-0.6,0.8-0.8c0.3-0.2,0.7-0.5,1.2-0.7c0.5-0.2,1-0.3,1.5-0.3
		c0.6,0,1.1,0.1,1.7,0.2c0.5,0.1,0.9,0.2,1.1,0.3L36,43.7z"/>
	<path class="st2" d="M48.6,58.5h5c-0.2,2-1.1,3.7-2.6,4.9c-1.5,1.2-3.3,1.8-5.5,1.8c-2.3,0-4.3-0.7-5.8-2.1
		c-1.5-1.4-2.2-3.2-2.2-5.2v-7.6c0-2.1,0.8-3.8,2.3-5.2c1.5-1.4,3.4-2.1,5.8-2.1c2.3,0,4.3,0.7,5.7,2.1c1.5,1.4,2.2,3.1,2.2,5.2v5.5
		H42.5v2.1c0,0.9,0.3,1.7,0.9,2.2c0.6,0.6,1.3,0.9,2.2,0.9c0.8,0,1.5-0.2,2-0.6c0.5-0.4,0.8-0.8,0.9-1.2L48.6,58.5z M42.5,50.3v1.4
		h6.2v-1.4c0-0.9-0.3-1.6-0.9-2.1c-0.6-0.5-1.3-0.8-2.2-0.8c-0.8,0-1.6,0.3-2.2,0.8C42.8,48.7,42.5,49.4,42.5,50.3z"/>
	<path class="st2" d="M70.1,64.9l-0.2-2.3c-0.1,0.2-0.3,0.4-0.6,0.7c-0.3,0.3-0.9,0.7-1.8,1.2c-1,0.5-2,0.7-3.2,0.7
		c-1.9,0-3.5-0.6-4.6-1.8c-1.1-1.2-1.7-2.8-1.7-4.6c0-2,0.7-3.6,2.1-4.7c1.4-1.2,3.3-1.8,5.6-2l3.8-0.3v-1.5c0-0.9-0.2-1.6-0.7-2.1
		c-0.5-0.5-1.1-0.8-1.9-0.8c-0.8,0-1.4,0.2-2,0.7c-0.5,0.4-0.8,1-0.9,1.7h-4.9c0-1.9,0.7-3.5,2.1-4.9c1.4-1.3,3.2-2,5.4-2
		c2.4,0,4.3,0.7,5.7,2.1c1.4,1.4,2.1,3.1,2.1,5.3v14.6H70.1z M65.7,61c1.1,0,2-0.3,2.7-1c0.7-0.7,1.1-1.3,1.1-2.1v-2.5L66,55.8
		c-1,0.1-1.7,0.4-2.3,0.8s-0.8,1.1-0.8,2c0,0.6,0.2,1.2,0.7,1.7C64.1,60.8,64.8,61,65.7,61z"/>
	<path class="st2" d="M78.1,47.9v-4.5h2.8v-5.6h5v5.6h6.7v4.5h-6.7v11c0,0.6,0.2,1.1,0.6,1.4c0.4,0.3,0.8,0.5,1.4,0.5
		c0.5,0,1-0.2,1.3-0.5c0.3-0.3,0.5-0.8,0.5-1.4v-0.6h4.6v0.3c0,2-0.6,3.6-1.9,4.8c-1.3,1.2-2.8,1.8-4.7,1.8c-2.1,0-3.7-0.6-4.9-1.9
		c-1.2-1.3-1.8-3.1-1.8-5.4V47.9H78.1z"/>
	<path class="st2" d="M98.1,40.3v-5.5h5.5v5.5H98.1z M98.3,64.9V43.4h5.1v21.5H98.3z"/>
	<path class="st2" d="M113.8,43.4v8.3l2.7,8.9l0.4,0l2.8-8.9v-8.3h5v7.7l-4.6,13.8h-7l-4.4-13.1v-8.4H113.8z"/>
	<path class="st2" d="M145.6,50.3v7.6c0,2.1-0.7,3.8-2.2,5.2c-1.5,1.4-3.4,2.1-5.8,2.1c-2.4,0-4.4-0.7-5.8-2.1
		c-1.5-1.4-2.2-3.2-2.2-5.2v-7.6c0-2.1,0.7-3.8,2.2-5.2c1.5-1.4,3.4-2.1,5.8-2.1c2.4,0,4.3,0.7,5.8,2.1
		C144.8,46.5,145.6,48.2,145.6,50.3z M140.6,57.7v-7.1c0-0.9-0.3-1.7-0.9-2.3c-0.6-0.6-1.3-0.9-2.2-0.9c-0.9,0-1.6,0.3-2.2,0.9
		c-0.6,0.6-0.9,1.3-0.9,2.3v7.1c0,0.9,0.3,1.7,0.9,2.3c0.6,0.6,1.4,0.9,2.3,0.9c0.9,0,1.6-0.3,2.2-0.9
		C140.3,59.4,140.6,58.6,140.6,57.7z"/>
</g>
<g>
	<path class="st1" d="M1.9,96.3v-1.5c0-0.3,0.2-0.4,0.4-0.4h1.5c0.3,0,0.4,0.2,0.4,0.4v1.5c0,2.9,2.1,4.8,5.1,4.8
		c3.1,0,5.2-1.9,5.2-4.8V80.5c0-0.3,0.2-0.4,0.4-0.4h1.5c0.3,0,0.4,0.2,0.4,0.4v15.9c0,4.1-3,6.8-7.5,6.8S1.9,100.4,1.9,96.3z"/>
	<path class="st1" d="M32.9,86.4h1.5c0.3,0,0.4,0.2,0.4,0.4v15.7c0,0.3-0.2,0.4-0.4,0.4h-1.5c-0.3,0-0.4-0.2-0.4-0.4v-1.2
		c0-0.1-0.1-0.2-0.2-0.1c-0.9,1.2-2.3,2-4.3,2c-3.1,0-5.7-1.9-5.7-5.4V86.8c0-0.3,0.2-0.4,0.4-0.4h1.5c0.3,0,0.4,0.2,0.4,0.4v10.2
		c0,2.4,1.5,4,3.9,4c2.5,0,4-1.6,4-4V86.8C32.4,86.5,32.6,86.4,32.9,86.4z"/>
	<path class="st1" d="M50.5,86.4H52c0.3,0,0.4,0.2,0.4,0.4v15.5c0,5.5-3.8,7.3-8.9,7c-0.3,0-0.4-0.2-0.4-0.5l0.1-1.3
		c0-0.3,0.2-0.4,0.4-0.4c4.6,0.2,6.6-1.3,6.6-4.9v-1.1c0-0.1-0.1-0.2-0.2-0.1c-0.9,1.1-2.2,1.9-4.2,1.9c-2.7,0-5.2-1.5-6-4.4
		c-0.3-1-0.4-2.4-0.4-4c0-1.7,0.1-3.1,0.4-4.2c0.8-2.5,2.9-4.3,5.8-4.3c2,0,3.4,0.7,4.4,1.9c0.1,0.1,0.2,0.1,0.2-0.1v-1.1
		C50.1,86.5,50.3,86.4,50.5,86.4z M50.1,94.6c0-2.3,0-2.6-0.2-3.3c-0.3-1.8-1.7-3.2-3.9-3.2c-2.2,0-3.6,1.4-4.1,3.2
		c-0.2,0.6-0.3,1.5-0.3,3.3c0,1.8,0.2,2.8,0.3,3.3c0.4,1.8,1.9,3.2,4.1,3.2c2.3,0,3.6-1.4,3.9-3.1C50.1,97.3,50.1,96.9,50.1,94.6z"
		/>
	<path class="st1" d="M69.3,91.6v10.9c0,0.3-0.2,0.4-0.4,0.4h-1.5c-0.3,0-0.4-0.2-0.4-0.4v-1.2c0-0.1-0.1-0.2-0.2-0.1
		c-1.2,1.3-3,1.9-5.1,1.9c-2.8,0-5.4-1.3-5.4-4.8c0-3.3,2.5-5.3,6.7-5.3h3.8c0.1,0,0.2-0.1,0.2-0.2v-1.2c0-2.1-1.1-3.6-3.8-3.6
		c-2.1,0-3.4,0.8-3.8,2.2c-0.1,0.3-0.2,0.4-0.5,0.3l-1.6-0.2c-0.3,0-0.4-0.1-0.4-0.4c0.4-2.4,2.8-4,6.2-4
		C67.1,86.1,69.3,88.4,69.3,91.6z M66.9,97.6v-2.5c0-0.1-0.1-0.2-0.2-0.2h-3.4c-2.8,0-4.8,1.2-4.8,3.3c0,2,1.6,2.9,3.6,2.9
		C64.6,101.2,66.9,99.9,66.9,97.6z"/>
	<path class="st1" d="M82.5,86.6c0.2,0.1,0.3,0.3,0.2,0.5l-0.3,1.4c-0.1,0.3-0.2,0.4-0.5,0.3c-0.4-0.1-0.9-0.2-1.6-0.2
		c-2.3,0.1-3.9,1.8-3.9,4.3v9.5c0,0.3-0.2,0.4-0.4,0.4h-1.5c-0.3,0-0.4-0.2-0.4-0.4V86.8c0-0.3,0.2-0.4,0.4-0.4h1.5
		c0.3,0,0.4,0.2,0.4,0.4v1.8c0,0.2,0.1,0.2,0.2,0.1c0.9-1.5,2.3-2.5,4.2-2.5C81.5,86.2,82.1,86.4,82.5,86.6z"/>
	<path class="st1" d="M92.4,98.6c-0.3-1.1-0.4-2.4-0.4-4c0-1.8,0.2-3,0.4-4c0.8-2.7,3.2-4.5,6.3-4.5c3.3,0,5.7,1.9,6.4,4.2
		c0.1,0.3,0.2,0.7,0.2,0.9c0,0.3-0.1,0.5-0.4,0.5l-1.4,0.2c-0.3,0-0.4-0.1-0.5-0.4c0-0.1,0-0.3-0.1-0.4c-0.4-1.6-2-3-4.2-3
		c-2.2,0-3.7,1.3-4.1,3.2c-0.2,0.7-0.3,1.8-0.3,3.3c0,1.6,0.1,2.7,0.3,3.3c0.4,1.9,1.9,3.2,4.1,3.2c2.2,0,3.8-1.3,4.2-2.9
		c0-0.1,0-0.1,0-0.2l0,0c0-0.3,0.2-0.4,0.5-0.4l1.4,0.2c0.3,0,0.4,0.2,0.4,0.5c0,0.1-0.1,0.3-0.1,0.6c-0.7,2.5-3.2,4.2-6.4,4.2
		C95.5,103.2,93.2,101.4,92.4,98.6z"/>
	<path class="st1" d="M109.3,98.6c-0.3-1.1-0.5-2.4-0.5-4c0-1.6,0.1-2.9,0.4-4c0.8-2.8,3.2-4.5,6.4-4.5c3.1,0,5.5,1.7,6.3,4.5
		c0.3,1.1,0.5,2.5,0.5,4c0,1.6-0.1,2.9-0.5,4c-0.8,2.8-3.2,4.5-6.3,4.5C112.5,103.2,110.1,101.4,109.3,98.6z M119.8,97.9
		c0.2-0.8,0.3-2,0.3-3.3c0-1.4-0.1-2.6-0.3-3.3c-0.5-1.9-2.1-3.2-4.2-3.2c-2.1,0-3.7,1.3-4.2,3.2c-0.2,0.7-0.3,1.9-0.3,3.3
		c0,1.4,0.1,2.6,0.3,3.3c0.5,2,2.1,3.2,4.2,3.2C117.7,101.1,119.3,99.9,119.8,97.9z"/>
	<path class="st1" d="M139.7,91.8v10.7c0,0.3-0.2,0.4-0.4,0.4h-1.5c-0.3,0-0.4-0.2-0.4-0.4V92.3c0-2.4-1.6-4.1-3.9-4.1
		c-2.2,0-3.8,1.4-4,3.4v10.9c0,0.3-0.2,0.4-0.4,0.4h-1.5c-0.3,0-0.4-0.2-0.4-0.4V86.8c0-0.3,0.2-0.4,0.4-0.4h1.5
		c0.3,0,0.4,0.2,0.4,0.4V88c0,0.1,0.1,0.2,0.2,0.1c0.9-1.3,2.5-2,4.4-2C137.4,86.2,139.7,88.4,139.7,91.8z"/>
	<path class="st1" d="M155.3,98.7c0.1-0.2,0.3-0.3,0.6-0.2l0.9,0.5c0.2,0.1,0.3,0.3,0.2,0.6c-1,2.1-3.1,3.6-6.1,3.6
		c-3.1,0-5.2-1.6-6.1-4.1c-0.5-1.2-0.6-2.7-0.6-4.5c0-1.7,0-2.8,0.3-3.8c0.7-2.8,3.1-4.7,6.3-4.7c3.9,0,5.9,2.2,6.5,5.6
		c0.2,0.9,0.2,1.7,0.2,3.3c0,0.3-0.2,0.4-0.4,0.4h-10.4c-0.1,0-0.2,0.1-0.2,0.2c0,1.1,0.1,1.9,0.2,2.4c0.5,1.9,2.1,3.2,4.4,3.2
		C153.2,101.1,154.6,100.2,155.3,98.7z M146.8,91.2c-0.2,0.5-0.2,1.3-0.3,2.2c0,0.1,0.1,0.2,0.2,0.2h8.4c0.1,0,0.2-0.1,0.2-0.2
		c0-0.9-0.1-1.6-0.2-2.1c-0.5-1.9-2-3.2-4.2-3.2C148.6,88.1,147.2,89.4,146.8,91.2z"/>
	<path class="st1" d="M162,98.6c-0.3-1.1-0.4-2.4-0.4-4c0-1.8,0.2-3,0.4-4c0.8-2.7,3.2-4.5,6.3-4.5c3.3,0,5.7,1.9,6.4,4.2
		c0.1,0.3,0.2,0.7,0.2,0.9c0,0.3-0.1,0.5-0.4,0.5l-1.4,0.2c-0.3,0-0.4-0.1-0.5-0.4c0-0.1,0-0.3-0.1-0.4c-0.4-1.6-2-3-4.2-3
		c-2.2,0-3.7,1.3-4.1,3.2c-0.2,0.7-0.3,1.8-0.3,3.3c0,1.6,0.1,2.7,0.3,3.3c0.4,1.9,1.9,3.2,4.1,3.2c2.2,0,3.8-1.3,4.2-2.9
		c0-0.1,0-0.1,0-0.2l0,0c0-0.3,0.2-0.4,0.5-0.4l1.4,0.2c0.3,0,0.4,0.2,0.4,0.5c0,0.1-0.1,0.3-0.1,0.6c-0.7,2.5-3.2,4.2-6.4,4.2
		C165.2,103.2,162.8,101.4,162,98.6z"/>
	<path class="st1" d="M186.1,88.3h-3.6c-0.1,0-0.2,0.1-0.2,0.2V98c0,2.1,0.9,2.8,2.9,2.8h0.7c0.3,0,0.4,0.2,0.4,0.4v1.1
		c0,0.3-0.1,0.4-0.4,0.5h-1.1c-2.8,0-4.8-0.8-4.8-4.1V88.5c0-0.1-0.1-0.2-0.2-0.2h-1.9c-0.3,0-0.4-0.2-0.4-0.4v-1.1
		c0-0.3,0.2-0.4,0.4-0.4h1.9c0.1,0,0.2-0.1,0.2-0.2v-3.7c0-0.3,0.2-0.4,0.4-0.4h1.4c0.3,0,0.4,0.2,0.4,0.4v3.7
		c0,0.1,0.1,0.2,0.2,0.2h3.6c0.3,0,0.4,0.2,0.4,0.4v1.1C186.5,88.1,186.3,88.3,186.1,88.3z"/>
	<path class="st1" d="M202.8,91.6v10.9c0,0.3-0.2,0.4-0.4,0.4h-1.5c-0.3,0-0.4-0.2-0.4-0.4v-1.2c0-0.1-0.1-0.2-0.2-0.1
		c-1.2,1.3-3,1.9-5.1,1.9c-2.8,0-5.4-1.3-5.4-4.8c0-3.3,2.5-5.3,6.7-5.3h3.8c0.1,0,0.2-0.1,0.2-0.2v-1.2c0-2.1-1.1-3.6-3.8-3.6
		c-2.1,0-3.4,0.8-3.8,2.2c-0.1,0.3-0.2,0.4-0.5,0.3l-1.6-0.2c-0.3,0-0.4-0.1-0.4-0.4c0.4-2.4,2.8-4,6.2-4
		C200.7,86.1,202.8,88.4,202.8,91.6z M200.5,97.6v-2.5c0-0.1-0.1-0.2-0.2-0.2h-3.4c-2.8,0-4.8,1.2-4.8,3.3c0,2,1.6,2.9,3.6,2.9
		C198.2,101.2,200.5,99.9,200.5,97.6z"/>
</g>
</svg>
